{
	"patcher" : 	{
		"fileversion" : 1,
		"appversion" : 		{
			"major" : 8,
			"minor" : 2,
			"revision" : 0,
			"architecture" : "x64",
			"modernui" : 1
		}
,
		"classnamespace" : "box",
		"rect" : [ 992.0, 391.0, 613.0, 489.0 ],
		"bglocked" : 0,
		"openinpresentation" : 1,
		"default_fontsize" : 12.0,
		"default_fontface" : 0,
		"default_fontname" : "Arial",
		"gridonopen" : 1,
		"gridsize" : [ 15.0, 15.0 ],
		"gridsnaponopen" : 1,
		"objectsnaponopen" : 1,
		"statusbarvisible" : 2,
		"toolbarvisible" : 1,
		"lefttoolbarpinned" : 0,
		"toptoolbarpinned" : 0,
		"righttoolbarpinned" : 0,
		"bottomtoolbarpinned" : 0,
		"toolbars_unpinned_last_save" : 0,
		"tallnewobj" : 0,
		"boxanimatetime" : 200,
		"enablehscroll" : 1,
		"enablevscroll" : 1,
		"devicewidth" : 0.0,
		"description" : "",
		"digest" : "",
		"tags" : "",
		"style" : "",
		"subpatcher_template" : "",
		"assistshowspatchername" : 0,
		"boxes" : [ 			{
				"box" : 				{
					"id" : "obj-11",
					"maxclass" : "message",
					"numinlets" : 2,
					"numoutlets" : 1,
					"outlettype" : [ "" ],
					"patching_rect" : [ 97.0, 385.0, 78.0, 22.0 ],
					"text" : "domain 1000"
				}

			}
, 			{
				"box" : 				{
					"attr" : "gridstep_y",
					"fontface" : 0,
					"fontname" : "Arial",
					"fontsize" : 13.0,
					"id" : "obj-16",
					"maxclass" : "attrui",
					"numinlets" : 1,
					"numoutlets" : 1,
					"outlettype" : [ "" ],
					"patching_rect" : [ 69.0, 163.122806549072266, 178.0, 23.0 ],
					"presentation" : 1,
					"presentation_rect" : [ 0.0, 24.0, 251.0, 23.0 ],
					"text_width" : 118.666666666666629
				}

			}
, 			{
				"box" : 				{
					"attr" : "snap2grid",
					"fontface" : 0,
					"fontname" : "Arial",
					"fontsize" : 13.0,
					"id" : "obj-17",
					"maxclass" : "attrui",
					"numinlets" : 1,
					"numoutlets" : 1,
					"outlettype" : [ "" ],
					"patching_rect" : [ 69.0, 128.0, 178.0, 23.0 ],
					"presentation" : 1,
					"presentation_rect" : [ 0.0, 49.0, 251.0, 23.0 ],
					"text_width" : 88.666666666666629
				}

			}
, 			{
				"box" : 				{
					"id" : "obj-31",
					"maxclass" : "newobj",
					"numinlets" : 2,
					"numoutlets" : 1,
					"outlettype" : [ "" ],
					"patching_rect" : [ 280.0, 198.0, 114.0, 22.0 ],
					"text" : "join"
				}

			}
, 			{
				"box" : 				{
					"id" : "obj-30",
					"maxclass" : "newobj",
					"numinlets" : 1,
					"numoutlets" : 2,
					"outlettype" : [ "pitchbend", "bang" ],
					"patching_rect" : [ 280.0, 128.0, 114.0, 22.0 ],
					"text" : "t pitchbend b"
				}

			}
, 			{
				"box" : 				{
					"id" : "obj-22",
					"maxclass" : "newobj",
					"numinlets" : 1,
					"numoutlets" : 1,
					"outlettype" : [ "" ],
					"patching_rect" : [ 375.0, 160.745613098144531, 64.0, 22.0 ],
					"text" : "pvar value"
				}

			}
, 			{
				"box" : 				{
					"id" : "obj-47",
					"maxclass" : "newobj",
					"numinlets" : 1,
					"numoutlets" : 1,
					"outlettype" : [ "" ],
					"patching_rect" : [ 280.0, 267.622806549072266, 149.0, 22.0 ],
					"text" : "pattrforward parent::attach"
				}

			}
, 			{
				"box" : 				{
					"id" : "obj-7",
					"maxclass" : "newobj",
					"numinlets" : 1,
					"numoutlets" : 1,
					"outlettype" : [ "" ],
					"patching_rect" : [ 280.0, 228.622806549072266, 61.0, 22.0 ],
					"saved_object_attributes" : 					{
						"filename" : "pb.expr",
						"parameter_enable" : 0
					}
,
					"text" : "js pb.expr"
				}

			}
, 			{
				"box" : 				{
					"id" : "obj-13",
					"maxclass" : "button",
					"numinlets" : 1,
					"numoutlets" : 1,
					"outlettype" : [ "bang" ],
					"parameter_enable" : 0,
					"patching_rect" : [ 280.0, 23.0, 24.0, 24.0 ],
					"varname" : "set"
				}

			}
, 			{
				"box" : 				{
					"id" : "obj-4",
					"maxclass" : "newobj",
					"numinlets" : 1,
					"numoutlets" : 3,
					"outlettype" : [ "", "", "" ],
					"patching_rect" : [ 46.0, 78.0, 65.0, 22.0 ],
					"restore" : [ "data", 0, 12, 1000.0, -1200.0, 1200.0, 0.0, 0.0, 0, -0.5, 1000.0, 0.0, 0, 0.0, "curve" ],
					"saved_object_attributes" : 					{
						"parameter_enable" : 0,
						"parameter_mappable" : 0
					}
,
					"text" : "pattr value",
					"varname" : "value"
				}

			}
, 			{
				"box" : 				{
					"candycane" : 2,
					"clicksustain" : 0,
					"data" : [ 						{
							"addpoints_with_curve" : [ 0.0, 0.0, 0, -0.5, 1000.0, 0.0, 0, 0.0 ]
						}
 ],
					"grid" : 2,
					"gridstep_y" : 100.0,
					"id" : "obj-2",
					"maxclass" : "mc.function",
					"mode" : 1,
					"numinlets" : 1,
					"numoutlets" : 5,
					"outlettype" : [ "float", "", "", "bang", "int" ],
					"parameter_enable" : 0,
					"patching_rect" : [ 69.0, 237.0, 178.0, 106.0 ],
					"presentation" : 1,
					"presentation_rect" : [ 0.0, 74.0, 251.0, 152.0 ],
					"range" : [ -1200.0, 1200.0 ],
					"snap2grid" : 2,
					"style" : "velvet",
					"varname" : "pb"
				}

			}
, 			{
				"box" : 				{
					"attr" : "range",
					"attrfilter" : [ "range", "domain", "mode", "gridstep_x", "gridstep_y" ],
					"fontface" : 0,
					"fontname" : "Arial",
					"fontsize" : 12.0,
					"id" : "obj-79",
					"maxclass" : "attrui",
					"numinlets" : 1,
					"numoutlets" : 1,
					"outlettype" : [ "" ],
					"patching_rect" : [ 69.0, 202.0, 178.0, 22.0 ],
					"presentation" : 1,
					"presentation_rect" : [ 0.0, 0.0, 251.0, 22.0 ],
					"text_width" : 64.666666666666629,
					"varname" : "attrui"
				}

			}
 ],
		"lines" : [ 			{
				"patchline" : 				{
					"destination" : [ "obj-2", 0 ],
					"source" : [ "obj-11", 0 ]
				}

			}
, 			{
				"patchline" : 				{
					"destination" : [ "obj-30", 0 ],
					"source" : [ "obj-13", 0 ]
				}

			}
, 			{
				"patchline" : 				{
					"destination" : [ "obj-2", 0 ],
					"source" : [ "obj-16", 0 ]
				}

			}
, 			{
				"patchline" : 				{
					"destination" : [ "obj-2", 0 ],
					"source" : [ "obj-17", 0 ]
				}

			}
, 			{
				"patchline" : 				{
					"destination" : [ "obj-31", 1 ],
					"source" : [ "obj-22", 0 ]
				}

			}
, 			{
				"patchline" : 				{
					"destination" : [ "obj-22", 0 ],
					"source" : [ "obj-30", 1 ]
				}

			}
, 			{
				"patchline" : 				{
					"destination" : [ "obj-31", 0 ],
					"source" : [ "obj-30", 0 ]
				}

			}
, 			{
				"patchline" : 				{
					"destination" : [ "obj-7", 0 ],
					"source" : [ "obj-31", 0 ]
				}

			}
, 			{
				"patchline" : 				{
					"destination" : [ "obj-2", 0 ],
					"source" : [ "obj-4", 1 ]
				}

			}
, 			{
				"patchline" : 				{
					"destination" : [ "obj-47", 0 ],
					"source" : [ "obj-7", 0 ]
				}

			}
, 			{
				"patchline" : 				{
					"destination" : [ "obj-2", 0 ],
					"source" : [ "obj-79", 0 ]
				}

			}
 ],
		"dependency_cache" : [ 			{
				"name" : "pb.expr.js",
				"bootpath" : "/Users/Shared/Max 8/Packages/MaxScore/patchers/Picster/expression-editors",
				"patcherrelativepath" : ".",
				"type" : "TEXT",
				"implicit" : 1
			}
 ],
		"autosave" : 0,
		"styles" : [ 			{
				"name" : "black on white",
				"number" : 				{
					"textcolor_inverse" : [ 0.239216, 0.254902, 0.278431, 1.0 ],
					"fontsize" : [ 12.0 ],
					"fontname" : [ "Arial" ]
				}
,
				"umenu" : 				{
					"textcolor_inverse" : [ 0.239216, 0.254902, 0.278431, 1.0 ],
					"bgfillcolor" : 					{
						"type" : "color",
						"color1" : [ 0.862745, 0.870588, 0.878431, 1.0 ],
						"color2" : [ 0.290196, 0.309804, 0.301961, 1.0 ],
						"color" : [ 1.0, 1.0, 1.0, 1.0 ],
						"angle" : 270.0,
						"proportion" : 0.39,
						"autogradient" : 0
					}

				}
,
				"parentstyle" : "",
				"multi" : 0
			}
, 			{
				"name" : "caption text",
				"default" : 				{
					"fontface" : [ 2 ],
					"fontsize" : [ 11.0 ]
				}
,
				"parentstyle" : "",
				"multi" : 0
			}
, 			{
				"name" : "section dividers",
				"default" : 				{
					"fontface" : [ 3 ],
					"fontsize" : [ 15.0 ],
					"fontname" : [ "Arial" ]
				}
,
				"parentstyle" : "",
				"multi" : 0
			}
, 			{
				"name" : "section info reg",
				"default" : 				{
					"fontsize" : [ 12.0 ],
					"fontname" : [ "Arial" ]
				}
,
				"parentstyle" : "",
				"multi" : 0
			}
, 			{
				"name" : "titles",
				"default" : 				{
					"fontface" : [ 1 ],
					"fontsize" : [ 20.0 ],
					"fontname" : [ "Arial" ]
				}
,
				"parentstyle" : "",
				"multi" : 0
			}
 ]
	}

}
