{
	"patcher" : 	{
		"fileversion" : 1,
		"appversion" : 		{
			"major" : 8,
			"minor" : 1,
			"revision" : 6,
			"architecture" : "x64",
			"modernui" : 1
		}
,
		"classnamespace" : "box",
		"rect" : [ 228.0, 79.0, 1051.0, 888.0 ],
		"bglocked" : 0,
		"openinpresentation" : 0,
		"default_fontsize" : 12.0,
		"default_fontface" : 0,
		"default_fontname" : "Arial",
		"gridonopen" : 1,
		"gridsize" : [ 15.0, 15.0 ],
		"gridsnaponopen" : 1,
		"objectsnaponopen" : 1,
		"statusbarvisible" : 2,
		"toolbarvisible" : 1,
		"lefttoolbarpinned" : 0,
		"toptoolbarpinned" : 0,
		"righttoolbarpinned" : 0,
		"bottomtoolbarpinned" : 0,
		"toolbars_unpinned_last_save" : 0,
		"tallnewobj" : 0,
		"boxanimatetime" : 200,
		"enablehscroll" : 1,
		"enablevscroll" : 1,
		"devicewidth" : 0.0,
		"description" : "",
		"digest" : "",
		"tags" : "",
		"style" : "",
		"subpatcher_template" : "",
		"showrootpatcherontab" : 0,
		"showontab" : 0,
		"assistshowspatchername" : 0,
		"boxes" : [ 			{
				"box" : 				{
					"fontname" : "Arial",
					"fontsize" : 12.0,
					"id" : "obj-2",
					"maxclass" : "newobj",
					"numinlets" : 1,
					"numoutlets" : 1,
					"outlettype" : [ "" ],
					"patching_rect" : [ 205.0, 243.0, 158.0, 22.0 ],
					"saved_object_attributes" : 					{
						"filename" : "helpstarter",
						"parameter_enable" : 0
					}
,
					"text" : "js helpstarter maxscore.split"
				}

			}
, 			{
				"box" : 				{
					"id" : "obj-8",
					"maxclass" : "newobj",
					"numinlets" : 0,
					"numoutlets" : 0,
					"patcher" : 					{
						"fileversion" : 1,
						"appversion" : 						{
							"major" : 8,
							"minor" : 1,
							"revision" : 6,
							"architecture" : "x64",
							"modernui" : 1
						}
,
						"classnamespace" : "box",
						"rect" : [ 228.0, 105.0, 1051.0, 862.0 ],
						"bglocked" : 0,
						"openinpresentation" : 0,
						"default_fontsize" : 12.0,
						"default_fontface" : 0,
						"default_fontname" : "Arial",
						"gridonopen" : 1,
						"gridsize" : [ 5.0, 5.0 ],
						"gridsnaponopen" : 1,
						"objectsnaponopen" : 1,
						"statusbarvisible" : 2,
						"toolbarvisible" : 1,
						"lefttoolbarpinned" : 0,
						"toptoolbarpinned" : 0,
						"righttoolbarpinned" : 0,
						"bottomtoolbarpinned" : 0,
						"toolbars_unpinned_last_save" : 0,
						"tallnewobj" : 0,
						"boxanimatetime" : 200,
						"enablehscroll" : 1,
						"enablevscroll" : 1,
						"devicewidth" : 0.0,
						"description" : "",
						"digest" : "",
						"tags" : "",
						"style" : "",
						"subpatcher_template" : "",
						"showontab" : 1,
						"assistshowspatchername" : 0,
						"boxes" : [ 							{
								"box" : 								{
									"color" : [ 0.611765, 0.701961, 1.0, 1.0 ],
									"fontname" : "Arial",
									"fontsize" : 13.0,
									"id" : "obj-14",
									"maxclass" : "newobj",
									"numinlets" : 2,
									"numoutlets" : 4,
									"outlettype" : [ "", "", "", "" ],
									"patching_rect" : [ 700.248718000000054, 569.317016999999964, 67.0, 23.0 ],
									"text" : "MaxScore",
									"varname" : "maxscore-2"
								}

							}
, 							{
								"box" : 								{
									"bgmode" : 0,
									"border" : 1,
									"clickthrough" : 0,
									"enablehscroll" : 0,
									"enablevscroll" : 0,
									"id" : "obj-15",
									"lockeddragscroll" : 1,
									"maxclass" : "bpatcher",
									"name" : "maxscore.bcanvas.maxpat",
									"numinlets" : 2,
									"numoutlets" : 4,
									"offset" : [ -1.0, 0.0 ],
									"outlettype" : [ "", "", "", "" ],
									"patching_rect" : [ 700.0, 604.0, 320.0, 220.0 ],
									"varname" : "bcanvas[3]",
									"viewvisibility" : 1
								}

							}
, 							{
								"box" : 								{
									"fontname" : "Arial",
									"fontsize" : 13.0,
									"id" : "obj-10",
									"maxclass" : "message",
									"numinlets" : 2,
									"numoutlets" : 1,
									"outlettype" : [ "" ],
									"patching_rect" : [ 437.0, 485.0, 64.0, 23.0 ],
									"text" : "0 0-1 0+2"
								}

							}
, 							{
								"box" : 								{
									"color" : [ 0.611765, 0.701961, 1.0, 1.0 ],
									"fontface" : 0,
									"fontname" : "Arial",
									"fontsize" : 13.0,
									"id" : "obj-5",
									"maxclass" : "newobj",
									"numinlets" : 9,
									"numoutlets" : 3,
									"outlettype" : [ "", "", "" ],
									"patching_rect" : [ 28.0, 520.0, 405.0, 23.0 ],
									"text" : "maxscore.split2 @staffgroups 0 0-1 0+2",
									"varname" : "maxscore-split"
								}

							}
, 							{
								"box" : 								{
									"color" : [ 0.611765, 0.701961, 1.0, 1.0 ],
									"fontname" : "Arial",
									"fontsize" : 13.0,
									"id" : "obj-37",
									"maxclass" : "newobj",
									"numinlets" : 2,
									"numoutlets" : 4,
									"outlettype" : [ "", "", "", "" ],
									"patching_rect" : [ 362.248688000000016, 569.317016999999964, 67.0, 23.0 ],
									"text" : "MaxScore",
									"varname" : "maxscore-1"
								}

							}
, 							{
								"box" : 								{
									"bgmode" : 0,
									"border" : 1,
									"clickthrough" : 0,
									"enablehscroll" : 0,
									"enablevscroll" : 0,
									"id" : "obj-41",
									"lockeddragscroll" : 1,
									"maxclass" : "bpatcher",
									"name" : "maxscore.bcanvas.maxpat",
									"numinlets" : 2,
									"numoutlets" : 4,
									"offset" : [ -1.0, 0.0 ],
									"outlettype" : [ "", "", "", "" ],
									"patching_rect" : [ 362.0, 604.0, 320.0, 220.0 ],
									"varname" : "bcanvas[2]",
									"viewvisibility" : 1
								}

							}
, 							{
								"box" : 								{
									"fontname" : "Arial",
									"fontsize" : 13.0,
									"id" : "obj-12",
									"linecount" : 7,
									"maxclass" : "message",
									"numinlets" : 2,
									"numoutlets" : 1,
									"outlettype" : [ "" ],
									"patching_rect" : [ 595.0, 63.0, 374.0, 110.0 ],
									"text" : "newScore 3 320 220 false, setStaffSpacingAbove 0 60, setStaffSpacingAbove 1 0, setStaffSpacingAbove 2 0, addNote 4 60. 0.5 4., addInterval 67., setCurrentStaff 1, addNote 2 60. 0.5 2., addNote 2 60. 0.5 2., setCurrentStaff 2, addNote 1 60. 0.5 1., addNote 1 60. 0.5 1., addNote 1 60. 0.5 1., addNote 1 60. 0.5 1., setTitleVisible false, clearSelection, setRenderAllowed true"
								}

							}
, 							{
								"box" : 								{
									"fontname" : "Arial",
									"fontsize" : 13.0,
									"id" : "obj-11",
									"maxclass" : "newobj",
									"numinlets" : 1,
									"numoutlets" : 1,
									"outlettype" : [ "bang" ],
									"patching_rect" : [ 595.0, 26.0, 65.0, 23.0 ],
									"text" : "loadbang"
								}

							}
, 							{
								"box" : 								{
									"fontname" : "Arial",
									"fontsize" : 13.0,
									"id" : "obj-6",
									"maxclass" : "message",
									"numinlets" : 2,
									"numoutlets" : 1,
									"outlettype" : [ "" ],
									"patching_rect" : [ 26.0, 176.0, 78.0, 23.0 ],
									"text" : "dumpScore"
								}

							}
, 							{
								"box" : 								{
									"color" : [ 0.611765, 0.701961, 1.0, 1.0 ],
									"fontname" : "Arial",
									"fontsize" : 13.0,
									"id" : "obj-3",
									"maxclass" : "newobj",
									"numinlets" : 2,
									"numoutlets" : 4,
									"outlettype" : [ "", "", "", "" ],
									"patching_rect" : [ 26.0, 212.0, 67.0, 23.0 ],
									"text" : "MaxScore"
								}

							}
, 							{
								"box" : 								{
									"bgmode" : 0,
									"border" : 1,
									"clickthrough" : 0,
									"enablehscroll" : 0,
									"enablevscroll" : 0,
									"id" : "obj-8",
									"lockeddragscroll" : 1,
									"maxclass" : "bpatcher",
									"name" : "maxscore.bcanvas.maxpat",
									"numinlets" : 2,
									"numoutlets" : 4,
									"offset" : [ -1.0, 0.0 ],
									"outlettype" : [ "", "", "", "" ],
									"patching_rect" : [ 26.0, 249.0, 320.0, 220.0 ],
									"varname" : "bcanvas[1]",
									"viewvisibility" : 1
								}

							}
, 							{
								"box" : 								{
									"color" : [ 0.611765, 0.701961, 1.0, 1.0 ],
									"fontname" : "Arial",
									"fontsize" : 13.0,
									"id" : "obj-39",
									"maxclass" : "newobj",
									"numinlets" : 2,
									"numoutlets" : 4,
									"outlettype" : [ "", "", "", "" ],
									"patching_rect" : [ 28.248684000000001, 569.317016999999964, 67.0, 23.0 ],
									"text" : "MaxScore",
									"varname" : "maxscore-0"
								}

							}
, 							{
								"box" : 								{
									"bgmode" : 0,
									"border" : 1,
									"clickthrough" : 0,
									"enablehscroll" : 0,
									"enablevscroll" : 0,
									"id" : "obj-40",
									"lockeddragscroll" : 1,
									"maxclass" : "bpatcher",
									"name" : "maxscore.bcanvas.maxpat",
									"numinlets" : 2,
									"numoutlets" : 4,
									"offset" : [ -1.0, 0.0 ],
									"outlettype" : [ "", "", "", "" ],
									"patching_rect" : [ 28.0, 604.0, 320.0, 220.0 ],
									"varname" : "bcanvas",
									"viewvisibility" : 1
								}

							}
, 							{
								"box" : 								{
									"color" : [ 0.611765, 0.701961, 1.0, 1.0 ],
									"fontname" : "Arial",
									"fontsize" : 13.0,
									"id" : "obj-1",
									"maxclass" : "newobj",
									"numinlets" : 1,
									"numoutlets" : 17,
									"outlettype" : [ "", "int", "", "int", "", "int", "", "int", "", "int", "", "int", "", "int", "", "", "bang" ],
									"patching_rect" : [ 28.0, 485.0, 405.0, 23.0 ],
									"text" : "maxscore.parse2",
									"varname" : "maxscore.parse"
								}

							}
, 							{
								"box" : 								{
									"border" : 0,
									"filename" : "helpdetails.js",
									"id" : "obj-2",
									"ignoreclick" : 1,
									"jsarguments" : [ "maxscore.split2" ],
									"maxclass" : "jsui",
									"numinlets" : 1,
									"numoutlets" : 1,
									"outlettype" : [ "" ],
									"parameter_enable" : 0,
									"patching_rect" : [ 10.0, 10.0, 564.0, 158.0 ]
								}

							}
, 							{
								"box" : 								{
									"border" : 0,
									"filename" : "helpargs.js",
									"id" : "obj-4",
									"ignoreclick" : 1,
									"jsarguments" : [ "maxscore.split" ],
									"maxclass" : "jsui",
									"numinlets" : 1,
									"numoutlets" : 1,
									"outlettype" : [ "" ],
									"parameter_enable" : 0,
									"patching_rect" : [ 449.0, 516.0, 203.47650146484375, 39.0 ]
								}

							}
 ],
						"lines" : [ 							{
								"patchline" : 								{
									"destination" : [ "obj-5", 7 ],
									"source" : [ "obj-1", 14 ]
								}

							}
, 							{
								"patchline" : 								{
									"destination" : [ "obj-5", 6 ],
									"source" : [ "obj-1", 12 ]
								}

							}
, 							{
								"patchline" : 								{
									"destination" : [ "obj-5", 5 ],
									"source" : [ "obj-1", 10 ]
								}

							}
, 							{
								"patchline" : 								{
									"destination" : [ "obj-5", 4 ],
									"source" : [ "obj-1", 8 ]
								}

							}
, 							{
								"patchline" : 								{
									"destination" : [ "obj-5", 3 ],
									"source" : [ "obj-1", 6 ]
								}

							}
, 							{
								"patchline" : 								{
									"destination" : [ "obj-5", 2 ],
									"source" : [ "obj-1", 4 ]
								}

							}
, 							{
								"patchline" : 								{
									"destination" : [ "obj-5", 1 ],
									"source" : [ "obj-1", 2 ]
								}

							}
, 							{
								"patchline" : 								{
									"destination" : [ "obj-5", 0 ],
									"source" : [ "obj-1", 0 ]
								}

							}
, 							{
								"patchline" : 								{
									"destination" : [ "obj-5", 8 ],
									"midpoints" : [ 446.5, 512.0, 423.5, 512.0 ],
									"source" : [ "obj-10", 0 ]
								}

							}
, 							{
								"patchline" : 								{
									"destination" : [ "obj-12", 0 ],
									"source" : [ "obj-11", 0 ]
								}

							}
, 							{
								"patchline" : 								{
									"destination" : [ "obj-3", 0 ],
									"midpoints" : [ 604.5, 205.0, 35.5, 205.0 ],
									"source" : [ "obj-12", 0 ]
								}

							}
, 							{
								"patchline" : 								{
									"destination" : [ "obj-15", 1 ],
									"source" : [ "obj-14", 1 ]
								}

							}
, 							{
								"patchline" : 								{
									"destination" : [ "obj-15", 0 ],
									"source" : [ "obj-14", 0 ]
								}

							}
, 							{
								"patchline" : 								{
									"destination" : [ "obj-14", 0 ],
									"midpoints" : [ 709.5, 834.0, 691.624359000000027, 834.0, 691.624359000000027, 558.317016999999964, 709.748718000000054, 558.317016999999964 ],
									"source" : [ "obj-15", 0 ]
								}

							}
, 							{
								"patchline" : 								{
									"destination" : [ "obj-1", 0 ],
									"midpoints" : [ 51.5, 240.0, 390.0, 240.0, 390.0, 480.0, 37.5, 480.0 ],
									"order" : 1,
									"source" : [ "obj-3", 1 ]
								}

							}
, 							{
								"patchline" : 								{
									"destination" : [ "obj-8", 1 ],
									"midpoints" : [ 51.5, 240.0, 336.5, 240.0 ],
									"order" : 0,
									"source" : [ "obj-3", 1 ]
								}

							}
, 							{
								"patchline" : 								{
									"destination" : [ "obj-8", 0 ],
									"source" : [ "obj-3", 0 ]
								}

							}
, 							{
								"patchline" : 								{
									"destination" : [ "obj-41", 1 ],
									"source" : [ "obj-37", 1 ]
								}

							}
, 							{
								"patchline" : 								{
									"destination" : [ "obj-41", 0 ],
									"source" : [ "obj-37", 0 ]
								}

							}
, 							{
								"patchline" : 								{
									"destination" : [ "obj-40", 1 ],
									"source" : [ "obj-39", 1 ]
								}

							}
, 							{
								"patchline" : 								{
									"destination" : [ "obj-40", 0 ],
									"source" : [ "obj-39", 0 ]
								}

							}
, 							{
								"patchline" : 								{
									"destination" : [ "obj-39", 0 ],
									"midpoints" : [ 37.5, 834.0, 19.624341999999999, 834.0, 19.624341999999999, 558.317016999999964, 37.748683999999997, 558.317016999999964 ],
									"source" : [ "obj-40", 0 ]
								}

							}
, 							{
								"patchline" : 								{
									"destination" : [ "obj-37", 0 ],
									"midpoints" : [ 371.5, 834.0, 353.624344000000008, 834.0, 353.624344000000008, 558.317016999999964, 371.748688000000016, 558.317016999999964 ],
									"source" : [ "obj-41", 0 ]
								}

							}
, 							{
								"patchline" : 								{
									"destination" : [ "obj-14", 0 ],
									"midpoints" : [ 423.5, 555.658508499999925, 709.748718000000054, 555.658508499999925 ],
									"source" : [ "obj-5", 2 ]
								}

							}
, 							{
								"patchline" : 								{
									"destination" : [ "obj-37", 0 ],
									"midpoints" : [ 230.5, 555.658508499999925, 371.748688000000016, 555.658508499999925 ],
									"source" : [ "obj-5", 1 ]
								}

							}
, 							{
								"patchline" : 								{
									"destination" : [ "obj-39", 0 ],
									"source" : [ "obj-5", 0 ]
								}

							}
, 							{
								"patchline" : 								{
									"destination" : [ "obj-3", 0 ],
									"source" : [ "obj-6", 0 ]
								}

							}
, 							{
								"patchline" : 								{
									"destination" : [ "obj-3", 0 ],
									"midpoints" : [ 35.5, 479.0, 13.5, 479.0, 13.5, 204.0, 35.5, 204.0 ],
									"source" : [ "obj-8", 0 ]
								}

							}
 ],
						"bgcolor" : [ 1.0, 1.0, 1.0, 1.0 ],
						"editing_bgcolor" : [ 1.0, 1.0, 1.0, 1.0 ]
					}
,
					"patching_rect" : [ 10.0, 85.0, 50.0, 22.0 ],
					"saved_object_attributes" : 					{
						"description" : "",
						"digest" : "",
						"editing_bgcolor" : [ 1.0, 1.0, 1.0, 1.0 ],
						"globalpatchername" : "",
						"locked_bgcolor" : [ 1.0, 1.0, 1.0, 1.0 ],
						"tags" : ""
					}
,
					"text" : "p basic",
					"varname" : "basic_tab"
				}

			}
, 			{
				"box" : 				{
					"border" : 0,
					"filename" : "helpname.js",
					"id" : "obj-13",
					"ignoreclick" : 1,
					"jsarguments" : [ "maxscore.split" ],
					"maxclass" : "jsui",
					"numinlets" : 1,
					"numoutlets" : 1,
					"outlettype" : [ "" ],
					"parameter_enable" : 0,
					"patching_rect" : [ 10.0, 10.0, 303.658599999999979, 57.567627000000002 ]
				}

			}
, 			{
				"box" : 				{
					"id" : "obj-16",
					"maxclass" : "newobj",
					"numinlets" : 0,
					"numoutlets" : 0,
					"patcher" : 					{
						"fileversion" : 1,
						"appversion" : 						{
							"major" : 8,
							"minor" : 1,
							"revision" : 6,
							"architecture" : "x64",
							"modernui" : 1
						}
,
						"classnamespace" : "box",
						"rect" : [ 0.0, 26.0, 1051.0, 862.0 ],
						"bglocked" : 0,
						"openinpresentation" : 0,
						"default_fontsize" : 12.0,
						"default_fontface" : 0,
						"default_fontname" : "Arial",
						"gridonopen" : 1,
						"gridsize" : [ 15.0, 15.0 ],
						"gridsnaponopen" : 1,
						"objectsnaponopen" : 1,
						"statusbarvisible" : 2,
						"toolbarvisible" : 1,
						"lefttoolbarpinned" : 0,
						"toptoolbarpinned" : 0,
						"righttoolbarpinned" : 0,
						"bottomtoolbarpinned" : 0,
						"toolbars_unpinned_last_save" : 0,
						"tallnewobj" : 0,
						"boxanimatetime" : 200,
						"enablehscroll" : 1,
						"enablevscroll" : 1,
						"devicewidth" : 0.0,
						"description" : "",
						"digest" : "",
						"tags" : "",
						"style" : "",
						"subpatcher_template" : "",
						"showontab" : 1,
						"assistshowspatchername" : 0,
						"boxes" : [  ],
						"lines" : [  ]
					}
,
					"patching_rect" : [ 205.0, 205.0, 50.0, 22.0 ],
					"saved_object_attributes" : 					{
						"description" : "",
						"digest" : "",
						"globalpatchername" : "",
						"tags" : ""
					}
,
					"text" : "p ?",
					"varname" : "q_tab"
				}

			}
 ],
		"lines" : [  ],
		"dependency_cache" : [ 			{
				"name" : "helpname.js",
				"bootpath" : "C74:/help/resources",
				"type" : "TEXT",
				"implicit" : 1
			}
, 			{
				"name" : "helpargs.js",
				"bootpath" : "C74:/help/resources",
				"type" : "TEXT",
				"implicit" : 1
			}
, 			{
				"name" : "helpdetails.js",
				"bootpath" : "C74:/help/resources",
				"type" : "TEXT",
				"implicit" : 1
			}
, 			{
				"name" : "maxscore.parse2.maxpat",
				"bootpath" : "/Users/Shared/Max 8/Packages/MaxScore/patchers/abstractions",
				"patcherrelativepath" : "../patchers/abstractions",
				"type" : "JSON",
				"implicit" : 1
			}
, 			{
				"name" : "MaxScoreNoteheads.txt",
				"bootpath" : "/Users/Shared/Max 8/Packages/MaxScore/patchers/maps/Font Mappings",
				"patcherrelativepath" : "../patchers/maps/Font Mappings",
				"type" : "TEXT",
				"implicit" : 1
			}
, 			{
				"name" : "selectInterval.maxpat",
				"bootpath" : "/Users/Shared/Max 8/Packages/MaxScore/patchers/extensions",
				"patcherrelativepath" : "../patchers/extensions",
				"type" : "JSON",
				"implicit" : 1
			}
, 			{
				"name" : "maxscore.empty.maxpat",
				"bootpath" : "/Users/Shared/Max 8/Packages/MaxScore/patchers/extensions",
				"patcherrelativepath" : "../patchers/extensions",
				"type" : "JSON",
				"implicit" : 1
			}
, 			{
				"name" : "quote2backslashquote.js",
				"bootpath" : "/Users/Shared/Max 8/Packages/MaxScore/javascript",
				"patcherrelativepath" : "../javascript",
				"type" : "TEXT",
				"implicit" : 1
			}
, 			{
				"name" : "ExpandExponential.maxpat",
				"bootpath" : "/Users/Shared/Max 8/Packages/MaxScore/patchers/extensions",
				"patcherrelativepath" : "../patchers/extensions",
				"type" : "JSON",
				"implicit" : 1
			}
, 			{
				"name" : "maxscore.sax.maxpat",
				"bootpath" : "/Users/Shared/Max 8/Packages/MaxScore/patchers/extensions",
				"patcherrelativepath" : "../patchers/extensions",
				"type" : "JSON",
				"implicit" : 1
			}
, 			{
				"name" : "maxscore.bcanvas.maxpat",
				"bootpath" : "/Users/Shared/Max 8/Packages/MaxScore/patchers/abstractions",
				"patcherrelativepath" : "../patchers/abstractions",
				"type" : "TEXT",
				"implicit" : 1
			}
, 			{
				"name" : "pane.js",
				"bootpath" : "/Users/Shared/Max 8/Packages/MaxScore/javascript",
				"patcherrelativepath" : "../javascript",
				"type" : "TEXT",
				"implicit" : 1
			}
, 			{
				"name" : "picster-select.js",
				"bootpath" : "/Users/Shared/Max 8/Packages/MaxScore/javascript",
				"patcherrelativepath" : "../javascript",
				"type" : "TEXT",
				"implicit" : 1
			}
, 			{
				"name" : "render2canvas.js",
				"bootpath" : "/Users/Shared/Max 8/Packages/MaxScore/javascript",
				"patcherrelativepath" : "../javascript",
				"type" : "TEXT",
				"implicit" : 1
			}
, 			{
				"name" : "maxscore.proportionalNotation.js",
				"bootpath" : "/Users/Shared/Max 8/Packages/MaxScore/javascript",
				"patcherrelativepath" : "../javascript",
				"type" : "TEXT",
				"implicit" : 1
			}
, 			{
				"name" : "MaxScoreKeyMap.txt",
				"bootpath" : "/Users/Shared/Max 8/Packages/MaxScore/patchers/maps",
				"patcherrelativepath" : "../patchers/maps",
				"type" : "TEXT",
				"implicit" : 1
			}
, 			{
				"name" : "mouseEvents.js",
				"bootpath" : "/Users/Shared/Max 8/Packages/MaxScore/javascript",
				"patcherrelativepath" : "../javascript",
				"type" : "TEXT",
				"implicit" : 1
			}
, 			{
				"name" : "boxSize.js",
				"bootpath" : "/Users/Shared/Max 8/Packages/MaxScore/javascript",
				"patcherrelativepath" : "../javascript",
				"type" : "TEXT",
				"implicit" : 1
			}
, 			{
				"name" : "jit.pane.js",
				"bootpath" : "/Users/Shared/Max 8/Packages/MaxScore/javascript",
				"patcherrelativepath" : "../javascript",
				"type" : "TEXT",
				"implicit" : 1
			}
, 			{
				"name" : "socket.pane.js",
				"bootpath" : "/Users/Shared/Max 8/Packages/MaxScore/javascript",
				"patcherrelativepath" : "../javascript",
				"type" : "TEXT",
				"implicit" : 1
			}
, 			{
				"name" : "n4m.max-fs.js",
				"bootpath" : "C74:/packages/Node For Max/examples/filesystem",
				"type" : "TEXT",
				"implicit" : 1
			}
, 			{
				"name" : "swissarmyknife.js",
				"bootpath" : "/Users/Shared/Max 8/Packages/MaxScore/javascript",
				"patcherrelativepath" : "../javascript",
				"type" : "TEXT",
				"implicit" : 1
			}
, 			{
				"name" : "MaxScore.maxpat",
				"bootpath" : "/Users/Shared/Max 8/Packages/MaxScore/patchers/abstractions",
				"patcherrelativepath" : "../patchers/abstractions",
				"type" : "JSON",
				"implicit" : 1
			}
, 			{
				"name" : "maxscore.split2.maxpat",
				"bootpath" : "/Users/Shared/Max 8/Packages/MaxScore/patchers/abstractions",
				"patcherrelativepath" : "../patchers/abstractions",
				"type" : "JSON",
				"implicit" : 1
			}
, 			{
				"name" : "helpstarter.js",
				"bootpath" : "C74:/help/resources",
				"type" : "TEXT",
				"implicit" : 1
			}
, 			{
				"name" : "sadam.empty.mxo",
				"type" : "iLaX"
			}
, 			{
				"name" : "sadam.rapidXML.mxo",
				"type" : "iLaX"
			}
 ],
		"autosave" : 0
	}

}
