{
	"patcher" : 	{
		"fileversion" : 1,
		"rect" : [ 454.0, 418.0, 419.0, 329.0 ],
		"bglocked" : 0,
		"defrect" : [ 454.0, 418.0, 419.0, 329.0 ],
		"openrect" : [ 0.0, 0.0, 0.0, 0.0 ],
		"openinpresentation" : 0,
		"default_fontsize" : 12.0,
		"default_fontface" : 0,
		"default_fontname" : "Arial",
		"gridonopen" : 0,
		"gridsize" : [ 15.0, 15.0 ],
		"gridsnaponopen" : 0,
		"toolbarvisible" : 1,
		"boxanimatetime" : 200,
		"imprint" : 0,
		"enablehscroll" : 1,
		"enablevscroll" : 1,
		"devicewidth" : 0.0,
		"boxes" : [ 			{
				"box" : 				{
					"maxclass" : "newobj",
					"text" : "patcherargs",
					"numoutlets" : 2,
					"outlettype" : [ "", "" ],
					"id" : "obj-14",
					"fontname" : "Arial",
					"patching_rect" : [ 21.0, 18.0, 74.0, 20.0 ],
					"fontsize" : 12.0,
					"numinlets" : 1
				}

			}
, 			{
				"box" : 				{
					"maxclass" : "newobj",
					"text" : "gate 2 1",
					"numoutlets" : 2,
					"outlettype" : [ "", "" ],
					"id" : "obj-13",
					"fontname" : "Arial",
					"patching_rect" : [ 182.0, 103.0, 54.0, 20.0 ],
					"fontsize" : 12.0,
					"numinlets" : 2
				}

			}
, 			{
				"box" : 				{
					"maxclass" : "newobj",
					"text" : "+ 1",
					"numoutlets" : 1,
					"outlettype" : [ "int" ],
					"id" : "obj-10",
					"fontname" : "Arial",
					"patching_rect" : [ 21.0, 43.0, 32.5, 20.0 ],
					"fontsize" : 12.0,
					"numinlets" : 2
				}

			}
, 			{
				"box" : 				{
					"maxclass" : "newobj",
					"text" : "int",
					"numoutlets" : 1,
					"outlettype" : [ "int" ],
					"id" : "obj-11",
					"fontname" : "Arial",
					"patching_rect" : [ 267.0, 168.0, 32.5, 18.0 ],
					"fontsize" : 10.0,
					"numinlets" : 2
				}

			}
, 			{
				"box" : 				{
					"maxclass" : "newobj",
					"text" : "prepend store",
					"numoutlets" : 1,
					"outlettype" : [ "" ],
					"id" : "obj-9",
					"fontname" : "Arial",
					"patching_rect" : [ 217.0, 131.0, 72.0, 18.0 ],
					"fontsize" : 10.0,
					"numinlets" : 1
				}

			}
, 			{
				"box" : 				{
					"maxclass" : "newobj",
					"text" : "route symbol",
					"numoutlets" : 2,
					"outlettype" : [ "", "" ],
					"id" : "obj-1",
					"fontname" : "Arial",
					"patching_rect" : [ 126.0, 54.0, 76.0, 18.0 ],
					"fontsize" : 10.0,
					"numinlets" : 1
				}

			}
, 			{
				"box" : 				{
					"maxclass" : "newobj",
					"text" : "route symbol int float bang list",
					"numoutlets" : 6,
					"outlettype" : [ "", "", "", "", "", "" ],
					"id" : "obj-2",
					"fontname" : "Arial",
					"patching_rect" : [ 217.0, 51.0, 143.0, 18.0 ],
					"fontsize" : 10.0,
					"numinlets" : 1
				}

			}
, 			{
				"box" : 				{
					"maxclass" : "newobj",
					"text" : "t b l",
					"numoutlets" : 2,
					"outlettype" : [ "bang", "" ],
					"id" : "obj-3",
					"fontname" : "Arial",
					"patching_rect" : [ 126.0, 142.0, 42.0, 18.0 ],
					"fontsize" : 10.0,
					"numinlets" : 1
				}

			}
, 			{
				"box" : 				{
					"maxclass" : "newobj",
					"text" : "zl reg",
					"numoutlets" : 2,
					"outlettype" : [ "", "" ],
					"id" : "obj-4",
					"fontname" : "Arial",
					"patching_rect" : [ 126.0, 207.0, 110.0, 18.0 ],
					"fontsize" : 10.0,
					"numinlets" : 2
				}

			}
, 			{
				"box" : 				{
					"maxclass" : "newobj",
					"text" : "zl join",
					"numoutlets" : 2,
					"outlettype" : [ "", "" ],
					"id" : "obj-5",
					"fontname" : "Arial",
					"patching_rect" : [ 126.0, 235.0, 41.0, 18.0 ],
					"fontsize" : 10.0,
					"numinlets" : 2
				}

			}
, 			{
				"box" : 				{
					"maxclass" : "inlet",
					"numoutlets" : 1,
					"outlettype" : [ "" ],
					"id" : "obj-6",
					"patching_rect" : [ 126.0, 17.0, 25.0, 25.0 ],
					"numinlets" : 0,
					"comment" : "list"
				}

			}
, 			{
				"box" : 				{
					"maxclass" : "inlet",
					"numoutlets" : 1,
					"outlettype" : [ "" ],
					"id" : "obj-7",
					"patching_rect" : [ 217.0, 17.0, 25.0, 25.0 ],
					"numinlets" : 0,
					"comment" : "index"
				}

			}
, 			{
				"box" : 				{
					"maxclass" : "outlet",
					"numoutlets" : 0,
					"id" : "obj-8",
					"patching_rect" : [ 126.0, 270.0, 25.0, 25.0 ],
					"numinlets" : 1,
					"comment" : "pack back into coll"
				}

			}
 ],
		"lines" : [ 			{
				"patchline" : 				{
					"source" : [ "obj-13", 0 ],
					"destination" : [ "obj-4", 1 ],
					"hidden" : 0,
					"midpoints" : [ 191.5, 197.0, 226.5, 197.0 ]
				}

			}
, 			{
				"patchline" : 				{
					"source" : [ "obj-13", 1 ],
					"destination" : [ "obj-9", 0 ],
					"hidden" : 0,
					"midpoints" : [  ]
				}

			}
, 			{
				"patchline" : 				{
					"source" : [ "obj-2", 5 ],
					"destination" : [ "obj-13", 1 ],
					"hidden" : 0,
					"midpoints" : [ 350.5, 94.0, 226.5, 94.0 ]
				}

			}
, 			{
				"patchline" : 				{
					"source" : [ "obj-2", 0 ],
					"destination" : [ "obj-13", 1 ],
					"hidden" : 0,
					"midpoints" : [  ]
				}

			}
, 			{
				"patchline" : 				{
					"source" : [ "obj-3", 1 ],
					"destination" : [ "obj-5", 1 ],
					"hidden" : 0,
					"midpoints" : [  ]
				}

			}
, 			{
				"patchline" : 				{
					"source" : [ "obj-5", 0 ],
					"destination" : [ "obj-8", 0 ],
					"hidden" : 0,
					"midpoints" : [  ]
				}

			}
, 			{
				"patchline" : 				{
					"source" : [ "obj-4", 0 ],
					"destination" : [ "obj-5", 0 ],
					"hidden" : 0,
					"midpoints" : [  ]
				}

			}
, 			{
				"patchline" : 				{
					"source" : [ "obj-3", 0 ],
					"destination" : [ "obj-4", 0 ],
					"hidden" : 0,
					"midpoints" : [  ]
				}

			}
, 			{
				"patchline" : 				{
					"source" : [ "obj-1", 0 ],
					"destination" : [ "obj-3", 0 ],
					"hidden" : 0,
					"midpoints" : [  ]
				}

			}
, 			{
				"patchline" : 				{
					"source" : [ "obj-1", 1 ],
					"destination" : [ "obj-3", 0 ],
					"hidden" : 0,
					"midpoints" : [  ]
				}

			}
, 			{
				"patchline" : 				{
					"source" : [ "obj-6", 0 ],
					"destination" : [ "obj-1", 0 ],
					"hidden" : 0,
					"midpoints" : [  ]
				}

			}
, 			{
				"patchline" : 				{
					"source" : [ "obj-9", 0 ],
					"destination" : [ "obj-4", 1 ],
					"hidden" : 0,
					"midpoints" : [  ]
				}

			}
, 			{
				"patchline" : 				{
					"source" : [ "obj-7", 0 ],
					"destination" : [ "obj-2", 0 ],
					"hidden" : 0,
					"midpoints" : [  ]
				}

			}
, 			{
				"patchline" : 				{
					"source" : [ "obj-2", 1 ],
					"destination" : [ "obj-4", 1 ],
					"hidden" : 0,
					"midpoints" : [ 251.300003, 197.0, 226.5, 197.0 ]
				}

			}
, 			{
				"patchline" : 				{
					"source" : [ "obj-2", 2 ],
					"destination" : [ "obj-11", 0 ],
					"hidden" : 0,
					"midpoints" : [  ]
				}

			}
, 			{
				"patchline" : 				{
					"source" : [ "obj-11", 0 ],
					"destination" : [ "obj-4", 1 ],
					"hidden" : 0,
					"midpoints" : [ 276.5, 197.0, 226.5, 197.0 ]
				}

			}
, 			{
				"patchline" : 				{
					"source" : [ "obj-2", 4 ],
					"destination" : [ "obj-11", 0 ],
					"hidden" : 0,
					"midpoints" : [ 325.700012, 157.0, 276.5, 157.0 ]
				}

			}
, 			{
				"patchline" : 				{
					"source" : [ "obj-10", 0 ],
					"destination" : [ "obj-13", 0 ],
					"hidden" : 0,
					"midpoints" : [ 30.5, 85.0, 191.5, 85.0 ]
				}

			}
, 			{
				"patchline" : 				{
					"source" : [ "obj-14", 0 ],
					"destination" : [ "obj-10", 0 ],
					"hidden" : 0,
					"midpoints" : [  ]
				}

			}
 ]
	}

}
