{
	"patcher" : 	{
		"fileversion" : 1,
		"appversion" : 		{
			"major" : 8,
			"minor" : 6,
			"revision" : 1,
			"architecture" : "x64",
			"modernui" : 1
		}
,
		"classnamespace" : "box",
		"rect" : [ 34.0, 100.0, 972.0, 721.0 ],
		"bglocked" : 0,
		"openinpresentation" : 0,
		"default_fontsize" : 12.0,
		"default_fontface" : 0,
		"default_fontname" : "Arial",
		"gridonopen" : 1,
		"gridsize" : [ 15.0, 15.0 ],
		"gridsnaponopen" : 1,
		"objectsnaponopen" : 1,
		"statusbarvisible" : 2,
		"toolbarvisible" : 1,
		"lefttoolbarpinned" : 0,
		"toptoolbarpinned" : 0,
		"righttoolbarpinned" : 0,
		"bottomtoolbarpinned" : 0,
		"toolbars_unpinned_last_save" : 0,
		"tallnewobj" : 0,
		"boxanimatetime" : 200,
		"enablehscroll" : 1,
		"enablevscroll" : 1,
		"devicewidth" : 0.0,
		"description" : "",
		"digest" : "",
		"tags" : "",
		"style" : "",
		"subpatcher_template" : "",
		"assistshowspatchername" : 0,
		"boxes" : [ 			{
				"box" : 				{
					"dontreplace" : 1,
					"id" : "obj-52",
					"maxclass" : "message",
					"numinlets" : 2,
					"numoutlets" : 1,
					"outlettype" : [ "" ],
					"patching_rect" : [ 447.0, 504.600006000000008, 119.0, 22.0 ]
				}

			}
, 			{
				"box" : 				{
					"id" : "obj-50",
					"maxclass" : "newobj",
					"numinlets" : 3,
					"numoutlets" : 3,
					"outlettype" : [ "", "", "" ],
					"patching_rect" : [ 391.0, 424.600006000000008, 166.0, 22.0 ],
					"text" : "routepass dictionary varname"
				}

			}
, 			{
				"box" : 				{
					"id" : "obj-49",
					"maxclass" : "newobj",
					"numinlets" : 2,
					"numoutlets" : 5,
					"outlettype" : [ "dictionary", "", "", "", "" ],
					"patching_rect" : [ 391.0, 504.600006000000008, 50.5, 22.0 ],
					"saved_object_attributes" : 					{
						"embed" : 0,
						"legacy" : 1,
						"parameter_enable" : 0,
						"parameter_mappable" : 0
					}
,
					"text" : "dict"
				}

			}
, 			{
				"box" : 				{
					"id" : "obj-48",
					"maxclass" : "message",
					"numinlets" : 2,
					"numoutlets" : 1,
					"outlettype" : [ "" ],
					"patching_rect" : [ 805.0, 645.0, 85.0, 22.0 ],
					"text" : "dump_params"
				}

			}
, 			{
				"box" : 				{
					"id" : "obj-47",
					"maxclass" : "comment",
					"numinlets" : 1,
					"numoutlets" : 0,
					"patching_rect" : [ 700.0, 57.476189255714417, 252.0, 20.0 ],
					"text" : "replaces the pitch set for a given scale name"
				}

			}
, 			{
				"box" : 				{
					"id" : "obj-46",
					"linecount" : 2,
					"maxclass" : "comment",
					"numinlets" : 1,
					"numoutlets" : 0,
					"patching_rect" : [ 219.0, 45.476189255714417, 326.0, 33.0 ],
					"text" : "name and cent values. These values will be converted into a pitch set spanning the range from -9600 to 9600 cents"
				}

			}
, 			{
				"box" : 				{
					"id" : "obj-45",
					"linecount" : 2,
					"maxclass" : "comment",
					"numinlets" : 1,
					"numoutlets" : 0,
					"patching_rect" : [ 45.8047869048537, 45.476189255714417, 167.0, 33.0 ],
					"text" : "name and indispensability values"
				}

			}
, 			{
				"box" : 				{
					"id" : "obj-43",
					"maxclass" : "comment",
					"numinlets" : 1,
					"numoutlets" : 0,
					"patching_rect" : [ 507.004798904853715, 346.600006000000008, 71.0, 20.0 ],
					"text" : "dump outlet"
				}

			}
, 			{
				"box" : 				{
					"id" : "obj-42",
					"linecount" : 2,
					"maxclass" : "comment",
					"numinlets" : 1,
					"numoutlets" : 0,
					"patching_rect" : [ 377.0, 346.600006000000008, 102.0, 33.0 ],
					"text" : "pulse # and indispensability"
				}

			}
, 			{
				"box" : 				{
					"id" : "obj-41",
					"maxclass" : "comment",
					"numinlets" : 1,
					"numoutlets" : 0,
					"patching_rect" : [ 215.0, 346.600006000000008, 99.0, 20.0 ],
					"text" : "downbeat"
				}

			}
, 			{
				"box" : 				{
					"id" : "obj-40",
					"maxclass" : "comment",
					"numinlets" : 1,
					"numoutlets" : 0,
					"patching_rect" : [ 60.0, 346.600006000000008, 99.0, 20.0 ],
					"text" : "note and velocity"
				}

			}
, 			{
				"box" : 				{
					"id" : "obj-37",
					"maxclass" : "message",
					"numinlets" : 2,
					"numoutlets" : 1,
					"outlettype" : [ "" ],
					"patching_rect" : [ 334.934928968284567, 384.0, 50.0, 22.0 ],
					"text" : "4 1"
				}

			}
, 			{
				"box" : 				{
					"id" : "obj-35",
					"maxclass" : "button",
					"numinlets" : 1,
					"numoutlets" : 1,
					"outlettype" : [ "bang" ],
					"parameter_enable" : 0,
					"patching_rect" : [ 205.869857936569133, 383.0, 24.0, 24.0 ]
				}

			}
, 			{
				"box" : 				{
					"bgcolor" : [ 0.301961, 0.301961, 0.301961, 1 ],
					"bgcolor2" : [ 0.2, 0.2, 0.2, 1 ],
					"bgfillcolor_autogradient" : 0.0,
					"bgfillcolor_color" : [ 0.2, 0.2, 0.2, 1 ],
					"bgfillcolor_color1" : [ 0.301961, 0.301961, 0.301961, 1 ],
					"bgfillcolor_color2" : [ 0.2, 0.2, 0.2, 1 ],
					"bgfillcolor_type" : "gradient",
					"gradient" : 1,
					"id" : "obj-33",
					"maxclass" : "message",
					"numinlets" : 2,
					"numoutlets" : 1,
					"outlettype" : [ "" ],
					"patching_rect" : [ 805.0, 484.600006000000008, 42.0, 22.0 ],
					"text" : "preset"
				}

			}
, 			{
				"box" : 				{
					"bgcolor" : [ 0.301961, 0.301961, 0.301961, 1 ],
					"bgcolor2" : [ 0.2, 0.2, 0.2, 1 ],
					"bgfillcolor_autogradient" : 0.0,
					"bgfillcolor_color" : [ 0.2, 0.2, 0.2, 1 ],
					"bgfillcolor_color1" : [ 0.301961, 0.301961, 0.301961, 1 ],
					"bgfillcolor_color2" : [ 0.2, 0.2, 0.2, 1 ],
					"bgfillcolor_type" : "gradient",
					"gradient" : 1,
					"id" : "obj-32",
					"maxclass" : "message",
					"numinlets" : 2,
					"numoutlets" : 1,
					"outlettype" : [ "" ],
					"patching_rect" : [ 805.0, 514.600006000000008, 72.0, 22.0 ],
					"text" : "getvarname"
				}

			}
, 			{
				"box" : 				{
					"bgcolor" : [ 0.301961, 0.301961, 0.301961, 1 ],
					"bgcolor2" : [ 0.2, 0.2, 0.2, 1 ],
					"bgfillcolor_autogradient" : 0.0,
					"bgfillcolor_color" : [ 0.2, 0.2, 0.2, 1 ],
					"bgfillcolor_color1" : [ 0.301961, 0.301961, 0.301961, 1 ],
					"bgfillcolor_color2" : [ 0.2, 0.2, 0.2, 1 ],
					"bgfillcolor_type" : "gradient",
					"gradient" : 1,
					"id" : "obj-29",
					"maxclass" : "message",
					"numinlets" : 2,
					"numoutlets" : 1,
					"outlettype" : [ "" ],
					"patching_rect" : [ 805.0, 580.600006000000008, 95.0, 22.0 ],
					"text" : "time_latch pulse"
				}

			}
, 			{
				"box" : 				{
					"bgcolor" : [ 0.301961, 0.301961, 0.301961, 1 ],
					"bgcolor2" : [ 0.2, 0.2, 0.2, 1 ],
					"bgfillcolor_autogradient" : 0.0,
					"bgfillcolor_color" : [ 0.2, 0.2, 0.2, 1 ],
					"bgfillcolor_color1" : [ 0.301961, 0.301961, 0.301961, 1 ],
					"bgfillcolor_color2" : [ 0.2, 0.2, 0.2, 1 ],
					"bgfillcolor_type" : "gradient",
					"gradient" : 1,
					"id" : "obj-28",
					"maxclass" : "message",
					"numinlets" : 2,
					"numoutlets" : 1,
					"outlettype" : [ "" ],
					"patching_rect" : [ 805.0, 547.600006000000008, 89.0, 22.0 ],
					"text" : "time_latch time"
				}

			}
, 			{
				"box" : 				{
					"bgcolor" : [ 0.301961, 0.301961, 0.301961, 1 ],
					"bgcolor2" : [ 0.2, 0.2, 0.2, 1 ],
					"bgfillcolor_autogradient" : 0.0,
					"bgfillcolor_color" : [ 0.2, 0.2, 0.2, 1 ],
					"bgfillcolor_color1" : [ 0.301961, 0.301961, 0.301961, 1 ],
					"bgfillcolor_color2" : [ 0.2, 0.2, 0.2, 1 ],
					"bgfillcolor_type" : "gradient",
					"gradient" : 1,
					"id" : "obj-27",
					"maxclass" : "message",
					"numinlets" : 2,
					"numoutlets" : 1,
					"outlettype" : [ "" ],
					"patching_rect" : [ 805.0, 612.600006000000008, 53.0, 22.0 ],
					"text" : "choice 1"
				}

			}
, 			{
				"box" : 				{
					"bgcolor" : [ 0.301961, 0.301961, 0.301961, 1 ],
					"bgcolor2" : [ 0.2, 0.2, 0.2, 1 ],
					"bgfillcolor_autogradient" : 0.0,
					"bgfillcolor_color" : [ 0.2, 0.2, 0.2, 1 ],
					"bgfillcolor_color1" : [ 0.301961, 0.301961, 0.301961, 1 ],
					"bgfillcolor_color2" : [ 0.2, 0.2, 0.2, 1 ],
					"bgfillcolor_type" : "gradient",
					"gradient" : 1,
					"id" : "obj-26",
					"maxclass" : "message",
					"numinlets" : 2,
					"numoutlets" : 1,
					"outlettype" : [ "" ],
					"patching_rect" : [ 805.0, 146.600006000000008, 93.0, 22.0 ],
					"text" : "tonality-profile 2"
				}

			}
, 			{
				"box" : 				{
					"id" : "obj-25",
					"maxclass" : "message",
					"numinlets" : 2,
					"numoutlets" : 1,
					"outlettype" : [ "" ],
					"patching_rect" : [ 594.0, 146.600006000000008, 55.0, 22.0 ],
					"text" : "stream 1"
				}

			}
, 			{
				"box" : 				{
					"id" : "obj-24",
					"maxclass" : "message",
					"numinlets" : 2,
					"numoutlets" : 1,
					"outlettype" : [ "" ],
					"patching_rect" : [ 805.0, 447.0, 52.0, 22.0 ],
					"text" : "sorted 1"
				}

			}
, 			{
				"box" : 				{
					"id" : "obj-23",
					"maxclass" : "message",
					"numinlets" : 2,
					"numoutlets" : 1,
					"outlettype" : [ "" ],
					"patching_rect" : [ 805.0, 413.0, 125.0, 22.0 ],
					"text" : "melodic_cohesion -80"
				}

			}
, 			{
				"box" : 				{
					"id" : "obj-22",
					"maxclass" : "message",
					"numinlets" : 2,
					"numoutlets" : 1,
					"outlettype" : [ "" ],
					"patching_rect" : [ 805.0, 370.0, 95.0, 22.0 ],
					"text" : "scale pentatonic"
				}

			}
, 			{
				"box" : 				{
					"id" : "obj-21",
					"maxclass" : "message",
					"numinlets" : 2,
					"numoutlets" : 1,
					"outlettype" : [ "" ],
					"patching_rect" : [ 805.0, 332.0, 59.0, 22.0 ],
					"text" : "meter 3 3"
				}

			}
, 			{
				"box" : 				{
					"id" : "obj-20",
					"maxclass" : "message",
					"numinlets" : 2,
					"numoutlets" : 1,
					"outlettype" : [ "" ],
					"patching_rect" : [ 805.0, 291.300002999999947, 93.0, 22.0 ],
					"text" : "outset_pulses 1"
				}

			}
, 			{
				"box" : 				{
					"id" : "obj-19",
					"maxclass" : "message",
					"numinlets" : 2,
					"numoutlets" : 1,
					"outlettype" : [ "" ],
					"patching_rect" : [ 805.0, 250.300002999999947, 105.0, 22.0 ],
					"text" : "silent_downbeat 1"
				}

			}
, 			{
				"box" : 				{
					"id" : "obj-17",
					"maxclass" : "message",
					"numinlets" : 2,
					"numoutlets" : 1,
					"outlettype" : [ "" ],
					"patching_rect" : [ 805.0, 212.600006000000008, 61.0, 22.0 ],
					"text" : "ostinato 1"
				}

			}
, 			{
				"box" : 				{
					"bgcolor" : [ 0.301961, 0.301961, 0.301961, 1 ],
					"bgcolor2" : [ 0.2, 0.2, 0.2, 1 ],
					"bgfillcolor_autogradient" : 0.0,
					"bgfillcolor_color" : [ 0.2, 0.2, 0.2, 1 ],
					"bgfillcolor_color1" : [ 0.301961, 0.301961, 0.301961, 1 ],
					"bgfillcolor_color2" : [ 0.2, 0.2, 0.2, 1 ],
					"bgfillcolor_type" : "gradient",
					"gradient" : 1,
					"id" : "obj-16",
					"maxclass" : "message",
					"numinlets" : 2,
					"numoutlets" : 1,
					"outlettype" : [ "" ],
					"patching_rect" : [ 805.0, 177.600006000000008, 95.0, 22.0 ],
					"text" : "ostinato-buffer 2"
				}

			}
, 			{
				"box" : 				{
					"id" : "obj-15",
					"maxclass" : "message",
					"numinlets" : 2,
					"numoutlets" : 1,
					"outlettype" : [ "" ],
					"patching_rect" : [ 659.0, 591.0, 78.0, 22.0 ],
					"text" : "attenuation 2"
				}

			}
, 			{
				"box" : 				{
					"id" : "obj-13",
					"maxclass" : "message",
					"numinlets" : 2,
					"numoutlets" : 1,
					"outlettype" : [ "" ],
					"patching_rect" : [ 659.0, 560.0, 69.0, 22.0 ],
					"text" : "dynamics 2"
				}

			}
, 			{
				"box" : 				{
					"id" : "obj-12",
					"maxclass" : "message",
					"numinlets" : 2,
					"numoutlets" : 1,
					"outlettype" : [ "" ],
					"patching_rect" : [ 659.0, 527.0, 99.0, 22.0 ],
					"text" : "chordal_weight 2"
				}

			}
, 			{
				"box" : 				{
					"id" : "obj-11",
					"maxclass" : "message",
					"numinlets" : 2,
					"numoutlets" : 1,
					"outlettype" : [ "" ],
					"patching_rect" : [ 659.0, 490.0, 88.0, 22.0 ],
					"text" : "pitch_range 12"
				}

			}
, 			{
				"box" : 				{
					"id" : "obj-10",
					"maxclass" : "message",
					"numinlets" : 2,
					"numoutlets" : 1,
					"outlettype" : [ "" ],
					"patching_rect" : [ 664.0, 455.0, 91.0, 22.0 ],
					"text" : "pitch_center 60"
				}

			}
, 			{
				"box" : 				{
					"id" : "obj-9",
					"maxclass" : "message",
					"numinlets" : 2,
					"numoutlets" : 1,
					"outlettype" : [ "" ],
					"patching_rect" : [ 664.0, 416.600006000000008, 83.0, 22.0 ],
					"text" : "tonic_pitch 65"
				}

			}
, 			{
				"box" : 				{
					"id" : "obj-8",
					"maxclass" : "message",
					"numinlets" : 2,
					"numoutlets" : 1,
					"outlettype" : [ "" ],
					"patching_rect" : [ 647.0, 377.600006000000008, 96.0, 22.0 ],
					"text" : "melody_scope 5"
				}

			}
, 			{
				"box" : 				{
					"id" : "obj-7",
					"maxclass" : "message",
					"numinlets" : 2,
					"numoutlets" : 1,
					"outlettype" : [ "" ],
					"patching_rect" : [ 624.0, 338.600006000000008, 100.0, 22.0 ],
					"text" : "harmoniclarity 80"
				}

			}
, 			{
				"box" : 				{
					"id" : "obj-6",
					"maxclass" : "newobj",
					"numinlets" : 1,
					"numoutlets" : 1,
					"outlettype" : [ "" ],
					"patching_rect" : [ 594.0, 463.0, 19.0, 22.0 ],
					"text" : "t l"
				}

			}
, 			{
				"box" : 				{
					"id" : "obj-5",
					"maxclass" : "message",
					"numinlets" : 2,
					"numoutlets" : 1,
					"outlettype" : [ "" ],
					"patching_rect" : [ 594.0, 307.600006000000008, 83.0, 22.0 ],
					"text" : "metriclarity 80"
				}

			}
, 			{
				"box" : 				{
					"bgcolor" : [ 0.301961, 0.301961, 0.301961, 1 ],
					"bgcolor2" : [ 0.2, 0.2, 0.2, 1 ],
					"bgfillcolor_autogradient" : 0.0,
					"bgfillcolor_color" : [ 0.2, 0.2, 0.2, 1 ],
					"bgfillcolor_color1" : [ 0.301961, 0.301961, 0.301961, 1 ],
					"bgfillcolor_color2" : [ 0.2, 0.2, 0.2, 1 ],
					"bgfillcolor_type" : "gradient",
					"gradient" : 1,
					"id" : "obj-4",
					"maxclass" : "message",
					"numinlets" : 2,
					"numoutlets" : 1,
					"outlettype" : [ "" ],
					"patching_rect" : [ 594.0, 276.600006000000008, 101.0, 22.0 ],
					"text" : "event_length 200"
				}

			}
, 			{
				"box" : 				{
					"id" : "obj-3",
					"maxclass" : "message",
					"numinlets" : 2,
					"numoutlets" : 1,
					"outlettype" : [ "" ],
					"patching_rect" : [ 594.0, 243.600006000000008, 105.0, 22.0 ],
					"text" : "event_length 20%"
				}

			}
, 			{
				"box" : 				{
					"id" : "obj-2",
					"maxclass" : "message",
					"numinlets" : 2,
					"numoutlets" : 1,
					"outlettype" : [ "" ],
					"patching_rect" : [ 594.0, 212.600006000000008, 93.0, 22.0 ],
					"text" : "eventfulness 80"
				}

			}
, 			{
				"box" : 				{
					"id" : "obj-1",
					"maxclass" : "message",
					"numinlets" : 2,
					"numoutlets" : 1,
					"outlettype" : [ "" ],
					"patching_rect" : [ 594.0, 177.600006000000008, 100.0, 22.0 ],
					"text" : "pulse_length 100"
				}

			}
, 			{
				"box" : 				{
					"id" : "obj-18",
					"maxclass" : "message",
					"numinlets" : 2,
					"numoutlets" : 1,
					"outlettype" : [ "" ],
					"patching_rect" : [ 219.0, 89.0, 409.0, 22.0 ],
					"text" : "add-scale my-scale 0 75 197 310 424 513 590 730 816 924 989 1077 1200"
				}

			}
, 			{
				"box" : 				{
					"id" : "obj-14",
					"maxclass" : "button",
					"numinlets" : 1,
					"numoutlets" : 1,
					"outlettype" : [ "bang" ],
					"parameter_enable" : 0,
					"patching_rect" : [ 635.0, 20.0, 24.0, 24.0 ]
				}

			}
, 			{
				"box" : 				{
					"id" : "obj-101",
					"maxclass" : "newobj",
					"numinlets" : 1,
					"numoutlets" : 1,
					"outlettype" : [ "" ],
					"patching_rect" : [ 635.0, 89.0, 192.0, 22.0 ],
					"text" : "prepend replace-pitchset my-scale"
				}

			}
, 			{
				"box" : 				{
					"data" : 					{
						"1" : [ 0, 1, 1, -1 ],
						"2" : [ 100, 1, 1, -2 ],
						"3" : [ 700, 1, 1, -3 ],
						"4" : [ 600, 1, 1, -4 ],
						"5" : [ 1100, 1, 1, -5 ],
						"6" : [ 500, 1, 1, -6 ],
						"7" : [ 600, 1, 1, -7 ]
					}
,
					"id" : "obj-100",
					"maxclass" : "newobj",
					"numinlets" : 2,
					"numoutlets" : 5,
					"outlettype" : [ "dictionary", "", "", "", "" ],
					"patching_rect" : [ 635.0, 56.476189255714417, 50.5, 22.0 ],
					"saved_object_attributes" : 					{
						"embed" : 1,
						"legacy" : 1,
						"parameter_enable" : 0,
						"parameter_mappable" : 0
					}
,
					"text" : "dict"
				}

			}
, 			{
				"box" : 				{
					"id" : "obj-71",
					"maxclass" : "mc.ezdac~",
					"numinlets" : 1,
					"numoutlets" : 0,
					"patching_rect" : [ 45.8047869048537, 665.0, 45.0, 45.0 ]
				}

			}
, 			{
				"box" : 				{
					"bgmode" : 0,
					"border" : 0,
					"clickthrough" : 0,
					"enablehscroll" : 0,
					"enablevscroll" : 0,
					"id" : "obj-70",
					"lockeddragscroll" : 0,
					"lockedsize" : 0,
					"maxclass" : "bpatcher",
					"name" : "maxscore.fluidsynth.maxpat",
					"numinlets" : 2,
					"numoutlets" : 2,
					"offset" : [ 0.0, 0.0 ],
					"outlettype" : [ "multichannelsignal", "" ],
					"patching_rect" : [ 45.8047869048537, 424.600006000000008, 318.0, 228.0 ],
					"presentation" : 1,
					"presentation_rect" : [ 1308.0, 870.0, 319.0, 229.0 ],
					"varname" : "maxscore.fluidsynth",
					"viewvisibility" : 1
				}

			}
, 			{
				"box" : 				{
					"id" : "obj-69",
					"maxclass" : "message",
					"numinlets" : 2,
					"numoutlets" : 1,
					"outlettype" : [ "" ],
					"patching_rect" : [ 45.8047869048537, 384.0, 75.0, 22.0 ],
					"text" : "note $1 $2 1"
				}

			}
, 			{
				"box" : 				{
					"id" : "obj-57",
					"maxclass" : "message",
					"numinlets" : 2,
					"numoutlets" : 1,
					"outlettype" : [ "" ],
					"patching_rect" : [ 45.8047869048537, 89.0, 167.0, 22.0 ],
					"text" : "append-meter my-meter 1 2 3"
				}

			}
, 			{
				"box" : 				{
					"bgmode" : 0,
					"border" : 0,
					"clickthrough" : 0,
					"enablehscroll" : 0,
					"enablevscroll" : 0,
					"id" : "obj-55",
					"lockeddragscroll" : 0,
					"lockedsize" : 0,
					"maxclass" : "bpatcher",
					"name" : "DJster.maxpat",
					"numinlets" : 1,
					"numoutlets" : 4,
					"offset" : [ 0.0, 0.0 ],
					"outlettype" : [ "", "bang", "", "dictionary" ],
					"patching_rect" : [ 45.8047869048537, 169.600006000000008, 499.1952130951463, 172.0 ],
					"varname" : "Djster.µbus",
					"viewvisibility" : 1
				}

			}
 ],
		"lines" : [ 			{
				"patchline" : 				{
					"destination" : [ "obj-6", 0 ],
					"source" : [ "obj-1", 0 ]
				}

			}
, 			{
				"patchline" : 				{
					"destination" : [ "obj-6", 0 ],
					"source" : [ "obj-10", 0 ]
				}

			}
, 			{
				"patchline" : 				{
					"destination" : [ "obj-101", 0 ],
					"source" : [ "obj-100", 0 ]
				}

			}
, 			{
				"patchline" : 				{
					"destination" : [ "obj-55", 0 ],
					"source" : [ "obj-101", 0 ]
				}

			}
, 			{
				"patchline" : 				{
					"destination" : [ "obj-6", 0 ],
					"source" : [ "obj-11", 0 ]
				}

			}
, 			{
				"patchline" : 				{
					"destination" : [ "obj-6", 0 ],
					"source" : [ "obj-12", 0 ]
				}

			}
, 			{
				"patchline" : 				{
					"destination" : [ "obj-6", 0 ],
					"source" : [ "obj-13", 0 ]
				}

			}
, 			{
				"patchline" : 				{
					"destination" : [ "obj-100", 0 ],
					"source" : [ "obj-14", 0 ]
				}

			}
, 			{
				"patchline" : 				{
					"destination" : [ "obj-6", 0 ],
					"source" : [ "obj-15", 0 ]
				}

			}
, 			{
				"patchline" : 				{
					"destination" : [ "obj-6", 0 ],
					"source" : [ "obj-16", 0 ]
				}

			}
, 			{
				"patchline" : 				{
					"destination" : [ "obj-6", 0 ],
					"source" : [ "obj-17", 0 ]
				}

			}
, 			{
				"patchline" : 				{
					"destination" : [ "obj-55", 0 ],
					"source" : [ "obj-18", 0 ]
				}

			}
, 			{
				"patchline" : 				{
					"destination" : [ "obj-6", 0 ],
					"source" : [ "obj-19", 0 ]
				}

			}
, 			{
				"patchline" : 				{
					"destination" : [ "obj-6", 0 ],
					"source" : [ "obj-2", 0 ]
				}

			}
, 			{
				"patchline" : 				{
					"destination" : [ "obj-6", 0 ],
					"source" : [ "obj-20", 0 ]
				}

			}
, 			{
				"patchline" : 				{
					"destination" : [ "obj-6", 0 ],
					"source" : [ "obj-21", 0 ]
				}

			}
, 			{
				"patchline" : 				{
					"destination" : [ "obj-6", 0 ],
					"source" : [ "obj-22", 0 ]
				}

			}
, 			{
				"patchline" : 				{
					"destination" : [ "obj-6", 0 ],
					"source" : [ "obj-23", 0 ]
				}

			}
, 			{
				"patchline" : 				{
					"destination" : [ "obj-6", 0 ],
					"source" : [ "obj-24", 0 ]
				}

			}
, 			{
				"patchline" : 				{
					"destination" : [ "obj-6", 0 ],
					"source" : [ "obj-25", 0 ]
				}

			}
, 			{
				"patchline" : 				{
					"destination" : [ "obj-6", 0 ],
					"source" : [ "obj-26", 0 ]
				}

			}
, 			{
				"patchline" : 				{
					"destination" : [ "obj-6", 0 ],
					"source" : [ "obj-27", 0 ]
				}

			}
, 			{
				"patchline" : 				{
					"destination" : [ "obj-6", 0 ],
					"source" : [ "obj-28", 0 ]
				}

			}
, 			{
				"patchline" : 				{
					"destination" : [ "obj-6", 0 ],
					"source" : [ "obj-29", 0 ]
				}

			}
, 			{
				"patchline" : 				{
					"destination" : [ "obj-6", 0 ],
					"source" : [ "obj-3", 0 ]
				}

			}
, 			{
				"patchline" : 				{
					"destination" : [ "obj-6", 0 ],
					"source" : [ "obj-32", 0 ]
				}

			}
, 			{
				"patchline" : 				{
					"destination" : [ "obj-6", 0 ],
					"source" : [ "obj-33", 0 ]
				}

			}
, 			{
				"patchline" : 				{
					"destination" : [ "obj-6", 0 ],
					"source" : [ "obj-4", 0 ]
				}

			}
, 			{
				"patchline" : 				{
					"destination" : [ "obj-6", 0 ],
					"source" : [ "obj-48", 0 ]
				}

			}
, 			{
				"patchline" : 				{
					"destination" : [ "obj-6", 0 ],
					"source" : [ "obj-5", 0 ]
				}

			}
, 			{
				"patchline" : 				{
					"destination" : [ "obj-49", 0 ],
					"source" : [ "obj-50", 0 ]
				}

			}
, 			{
				"patchline" : 				{
					"destination" : [ "obj-52", 1 ],
					"midpoints" : [ 474.0, 480.100006000000008, 556.5, 480.100006000000008 ],
					"source" : [ "obj-50", 1 ]
				}

			}
, 			{
				"patchline" : 				{
					"destination" : [ "obj-35", 0 ],
					"source" : [ "obj-55", 1 ]
				}

			}
, 			{
				"patchline" : 				{
					"destination" : [ "obj-37", 1 ],
					"source" : [ "obj-55", 2 ]
				}

			}
, 			{
				"patchline" : 				{
					"destination" : [ "obj-50", 0 ],
					"midpoints" : [ 535.5, 397.300003000000004, 400.5, 397.300003000000004 ],
					"source" : [ "obj-55", 3 ]
				}

			}
, 			{
				"patchline" : 				{
					"destination" : [ "obj-69", 0 ],
					"source" : [ "obj-55", 0 ]
				}

			}
, 			{
				"patchline" : 				{
					"destination" : [ "obj-55", 0 ],
					"source" : [ "obj-57", 0 ]
				}

			}
, 			{
				"patchline" : 				{
					"destination" : [ "obj-55", 0 ],
					"midpoints" : [ 603.5, 495.0, 568.40239345242685, 495.0, 568.40239345242685, 158.600006000000008, 55.3047869048537, 158.600006000000008 ],
					"source" : [ "obj-6", 0 ]
				}

			}
, 			{
				"patchline" : 				{
					"destination" : [ "obj-70", 0 ],
					"source" : [ "obj-69", 0 ]
				}

			}
, 			{
				"patchline" : 				{
					"destination" : [ "obj-6", 0 ],
					"source" : [ "obj-7", 0 ]
				}

			}
, 			{
				"patchline" : 				{
					"destination" : [ "obj-71", 0 ],
					"source" : [ "obj-70", 0 ]
				}

			}
, 			{
				"patchline" : 				{
					"destination" : [ "obj-6", 0 ],
					"source" : [ "obj-8", 0 ]
				}

			}
, 			{
				"patchline" : 				{
					"destination" : [ "obj-6", 0 ],
					"source" : [ "obj-9", 0 ]
				}

			}
 ],
		"parameters" : 		{
			"obj-55::obj-1" : [ "Outset Pulses", "Outset Pulses", 0 ],
			"obj-55::obj-104" : [ "umenu", "Tonality Profile", 0 ],
			"obj-55::obj-109" : [ "stream", "Play", 0 ],
			"obj-55::obj-11" : [ "Eventfulness", "Eventfulness", 0 ],
			"obj-55::obj-110" : [ "Event Length Percent", "Event Length", 0 ],
			"obj-55::obj-115" : [ "live.toggle", "live.toggle", 0 ],
			"obj-55::obj-122" : [ "Choice", "Event Length Display Style", 0 ],
			"obj-55::obj-128" : [ "Ostinato Buffer", "Ostinato Buffer", 0 ],
			"obj-55::obj-13" : [ "Melody Scope", "Melody Scope", 0 ],
			"obj-55::obj-136" : [ "Sorted", "Sorted", 0 ],
			"obj-55::obj-155" : [ "Use Transport", "Use Transport", 0 ],
			"obj-55::obj-157" : [ "Instance", "Instance", 0 ],
			"obj-55::obj-158" : [ "Subdivisions", "Subdivision", 0 ],
			"obj-55::obj-16" : [ "Scale", "Scale", 0 ],
			"obj-55::obj-187" : [ "meters", "meters", 0 ],
			"obj-55::obj-188" : [ "Pitchsets", "Pitchsets", 0 ],
			"obj-55::obj-206" : [ "Chordal Weight", "Chordal Weight", 0 ],
			"obj-55::obj-217" : [ "Overlap", "Overlap", 0 ],
			"obj-55::obj-22" : [ "Pulse Length", "Pulse Length", 0 ],
			"obj-55::obj-24" : [ "Harmoniclarity", "Harmoniclarity", 0 ],
			"obj-55::obj-25" : [ "Pitch Center", "Pitch Center", 0 ],
			"obj-55::obj-26" : [ "Pitch Range", "Pitch Range", 0 ],
			"obj-55::obj-27" : [ "Dynamics", "Dynamics", 0 ],
			"obj-55::obj-28" : [ "Attenuation", "Attenuation", 0 ],
			"obj-55::obj-29" : [ "Ostinato", "Ostinato", 0 ],
			"obj-55::obj-32" : [ "live.text[1]", "Clear Scales", 0 ],
			"obj-55::obj-47" : [ "Silent Downbeat", "Silent Downbeat", 0 ],
			"obj-55::obj-49" : [ "live.button", "Sync", 0 ],
			"obj-55::obj-5" : [ "Metriclarity", "Metriclarity", 0 ],
			"obj-55::obj-52" : [ "Tonic Pitch", "Tonic Pitch", 0 ],
			"obj-55::obj-53" : [ "Precision", "Precision", 0 ],
			"obj-55::obj-56" : [ "Precision[1]", "Preset Tab", 0 ],
			"obj-55::obj-77" : [ "Cohesion", "Melodic Cohesion", 0 ],
			"obj-55::obj-87" : [ "menu", "menu", 0 ],
			"obj-55::obj-88" : [ "live.text", "Scala Browser", 0 ],
			"obj-70::obj-10" : [ "live.text[41]", "live.text", 0 ],
			"obj-70::obj-11" : [ "mc.live.gain~[3]", "mc.live.gain~", 0 ],
			"obj-70::obj-24::obj-10::obj-7" : [ "sound[24]", "sound", 0 ],
			"obj-70::obj-24::obj-11::obj-7" : [ "sound[23]", "sound", 0 ],
			"obj-70::obj-24::obj-12::obj-7" : [ "sound[22]", "sound", 0 ],
			"obj-70::obj-24::obj-13::obj-7" : [ "sound[21]", "sound", 0 ],
			"obj-70::obj-24::obj-14::obj-7" : [ "sound[20]", "sound", 0 ],
			"obj-70::obj-24::obj-15::obj-7" : [ "sound[19]", "sound", 0 ],
			"obj-70::obj-24::obj-16::obj-7" : [ "sound[18]", "sound", 0 ],
			"obj-70::obj-24::obj-17::obj-7" : [ "sound[17]", "sound", 0 ],
			"obj-70::obj-24::obj-18::obj-7" : [ "sound[16]", "sound", 0 ],
			"obj-70::obj-24::obj-19::obj-7" : [ "sound[15]", "sound", 0 ],
			"obj-70::obj-24::obj-20::obj-7" : [ "sound[14]", "sound", 0 ],
			"obj-70::obj-24::obj-21::obj-7" : [ "sound[13]", "sound", 0 ],
			"obj-70::obj-24::obj-22::obj-7" : [ "sound[12]", "sound", 0 ],
			"obj-70::obj-24::obj-23::obj-7" : [ "sound[11]", "sound", 0 ],
			"obj-70::obj-24::obj-24::obj-7" : [ "sound[10]", "sound", 0 ],
			"obj-70::obj-24::obj-25::obj-7" : [ "sound[9]", "sound", 0 ],
			"obj-70::obj-24::obj-26::obj-7" : [ "sound[8]", "sound", 0 ],
			"obj-70::obj-24::obj-27::obj-7" : [ "sound[7]", "sound", 0 ],
			"obj-70::obj-24::obj-28::obj-7" : [ "sound[6]", "sound", 0 ],
			"obj-70::obj-24::obj-29::obj-7" : [ "sound[5]", "sound", 0 ],
			"obj-70::obj-24::obj-30::obj-7" : [ "sound[4]", "sound", 0 ],
			"obj-70::obj-24::obj-31::obj-7" : [ "sound[3]", "sound", 0 ],
			"obj-70::obj-24::obj-32::obj-7" : [ "sound[2]", "sound", 0 ],
			"obj-70::obj-24::obj-33::obj-7" : [ "sound[1]", "sound", 0 ],
			"obj-70::obj-24::obj-34::obj-7" : [ "sound", "sound", 0 ],
			"obj-70::obj-24::obj-3::obj-7" : [ "sound[31]", "sound", 0 ],
			"obj-70::obj-24::obj-4::obj-7" : [ "sound[30]", "sound", 0 ],
			"obj-70::obj-24::obj-5::obj-7" : [ "sound[29]", "sound", 0 ],
			"obj-70::obj-24::obj-6::obj-7" : [ "sound[28]", "sound", 0 ],
			"obj-70::obj-24::obj-7::obj-7" : [ "sound[27]", "sound", 0 ],
			"obj-70::obj-24::obj-8::obj-7" : [ "sound[26]", "sound", 0 ],
			"obj-70::obj-24::obj-9::obj-7" : [ "sound[25]", "sound", 0 ],
			"obj-70::obj-40" : [ "live.text[40]", "live.text", 0 ],
			"obj-70::obj-8::obj-22" : [ "Edit Button[3]", "Edit Button", 0 ],
			"obj-70::obj-9" : [ "live.text[39]", "live.text", 0 ],
			"parameterbanks" : 			{
				"0" : 				{
					"index" : 0,
					"name" : "",
					"parameters" : [ "-", "-", "-", "-", "-", "-", "-", "-" ]
				}

			}
,
			"parameter_overrides" : 			{
				"obj-55::obj-1" : 				{
					"parameter_range" : [ 1, 8 ]
				}
,
				"obj-55::obj-110" : 				{
					"parameter_initial" : 99,
					"parameter_longname" : "Event Length Percent",
					"parameter_range" : [ 1.0, 1000.0 ],
					"parameter_unitstyle" : 5
				}
,
				"obj-55::obj-13" : 				{
					"parameter_unitstyle" : 7
				}
,
				"obj-55::obj-16" : 				{
					"parameter_invisible" : 0,
					"parameter_modmode" : 0,
					"parameter_unitstyle" : 10
				}
,
				"obj-55::obj-25" : 				{
					"parameter_unitstyle" : 8
				}
,
				"obj-55::obj-26" : 				{
					"parameter_unitstyle" : 7
				}
,
				"obj-55::obj-52" : 				{
					"parameter_unitstyle" : 8
				}
,
				"obj-55::obj-56" : 				{
					"parameter_longname" : "Precision[1]"
				}
,
				"obj-55::obj-77" : 				{
					"parameter_longname" : "Cohesion"
				}
,
				"obj-55::obj-88" : 				{
					"parameter_longname" : "live.text"
				}

			}
,
			"inherited_shortname" : 1
		}
,
		"dependency_cache" : [ 			{
				"name" : "ASJFluidSynthPreset.json",
				"bootpath" : "/Users/Shared/Max 8/Library/A Space Journey",
				"patcherrelativepath" : "../../../../Library/A Space Journey",
				"type" : "JSON",
				"implicit" : 1
			}
, 			{
				"name" : "AdditiveMeter2.maxpat",
				"bootpath" : "/Users/Shared/Max 8/Packages/MaxScore/patchers/DJster/dispenser",
				"patcherrelativepath" : "../../patchers/DJster/dispenser",
				"type" : "JSON",
				"implicit" : 1
			}
, 			{
				"name" : "Autobusk-µPlayer.maxpat",
				"bootpath" : "/Users/Shared/Max 8/Packages/MaxScore/patchers/DJster/core",
				"patcherrelativepath" : "../../patchers/DJster/core",
				"type" : "JSON",
				"implicit" : 1
			}
, 			{
				"name" : "DJster.maxpat",
				"bootpath" : "/Users/Shared/Max 8/Packages/MaxScore/patchers/DJster",
				"patcherrelativepath" : "../../patchers/DJster",
				"type" : "JSON",
				"implicit" : 1
			}
, 			{
				"name" : "Inner-Equation.5.maxpat",
				"bootpath" : "/Users/Shared/Max 8/Packages/MaxScore/patchers/DJster/dispenser",
				"patcherrelativepath" : "../../patchers/DJster/dispenser",
				"type" : "JSON",
				"implicit" : 1
			}
, 			{
				"name" : "Inside.3.maxpat",
				"bootpath" : "/Users/Shared/Max 8/Packages/MaxScore/patchers/DJster/dispenser",
				"patcherrelativepath" : "../../patchers/DJster/dispenser",
				"type" : "JSON",
				"implicit" : 1
			}
, 			{
				"name" : "Mod.2.maxpat",
				"bootpath" : "/Users/Shared/Max 8/Packages/MaxScore/patchers/DJster/dispenser",
				"patcherrelativepath" : "../../patchers/DJster/dispenser",
				"type" : "JSON",
				"implicit" : 1
			}
, 			{
				"name" : "Pof_(Qi)(i=0toz-r-1).2.maxpat",
				"bootpath" : "/Users/Shared/Max 8/Packages/MaxScore/patchers/DJster/dispenser",
				"patcherrelativepath" : "../../patchers/DJster/dispenser",
				"type" : "JSON",
				"implicit" : 1
			}
, 			{
				"name" : "Pof_(Qj)(j=1toz).2.maxpat",
				"bootpath" : "/Users/Shared/Max 8/Packages/MaxScore/patchers/DJster/dispenser",
				"patcherrelativepath" : "../../patchers/DJster/dispenser",
				"type" : "JSON",
				"implicit" : 1
			}
, 			{
				"name" : "Pof_(Qz+1-k)(k=0tor).2.maxpat",
				"bootpath" : "/Users/Shared/Max 8/Packages/MaxScore/patchers/DJster/dispenser",
				"patcherrelativepath" : "../../patchers/DJster/dispenser",
				"type" : "JSON",
				"implicit" : 1
			}
, 			{
				"name" : "Qz+1-k2.maxpat",
				"bootpath" : "/Users/Shared/Max 8/Packages/MaxScore/patchers/DJster/dispenser",
				"patcherrelativepath" : "../../patchers/DJster/dispenser",
				"type" : "JSON",
				"implicit" : 1
			}
, 			{
				"name" : "Qz-r2.maxpat",
				"bootpath" : "/Users/Shared/Max 8/Packages/MaxScore/patchers/DJster/dispenser",
				"patcherrelativepath" : "../../patchers/DJster/dispenser",
				"type" : "JSON",
				"implicit" : 1
			}
, 			{
				"name" : "TIE.7.maxpat",
				"bootpath" : "/Users/Shared/Max 8/Packages/MaxScore/patchers/DJster/dispenser",
				"patcherrelativepath" : "../../patchers/DJster/dispenser",
				"type" : "JSON",
				"implicit" : 1
			}
, 			{
				"name" : "Total-Internal-Equation.6.maxpat",
				"bootpath" : "/Users/Shared/Max 8/Packages/MaxScore/patchers/DJster/dispenser",
				"patcherrelativepath" : "../../patchers/DJster/dispenser",
				"type" : "JSON",
				"implicit" : 1
			}
, 			{
				"name" : "bytecount.maxpat",
				"bootpath" : "/Users/Shared/Max 8/Packages/MaxScore/patchers/DJster/core",
				"patcherrelativepath" : "../../patchers/DJster/core",
				"type" : "JSON",
				"implicit" : 1
			}
, 			{
				"name" : "composite-meters.txt",
				"bootpath" : "/Users/Shared/Max 8/Packages/MaxScore/patchers/DJster/dispenser",
				"patcherrelativepath" : "../../patchers/DJster/dispenser",
				"type" : "TEXT",
				"implicit" : 1
			}
, 			{
				"name" : "dispenser.maxpat",
				"bootpath" : "/Users/Shared/Max 8/Packages/MaxScore/patchers/DJster/dispenser",
				"patcherrelativepath" : "../../patchers/DJster/dispenser",
				"type" : "JSON",
				"implicit" : 1
			}
, 			{
				"name" : "divmod.maxpat",
				"bootpath" : "/Users/Shared/Max 8/Packages/MaxScore/patchers/DJster/core",
				"patcherrelativepath" : "../../patchers/DJster/core",
				"type" : "JSON",
				"implicit" : 1
			}
, 			{
				"name" : "djster.accum.maxpat",
				"bootpath" : "/Users/Shared/Max 8/Packages/MaxScore/patchers/DJster/core",
				"patcherrelativepath" : "../../patchers/DJster/core",
				"type" : "JSON",
				"implicit" : 1
			}
, 			{
				"name" : "dumper.2.maxpat",
				"bootpath" : "/Users/Shared/Max 8/Packages/MaxScore/patchers/DJster/dispenser",
				"patcherrelativepath" : "../../patchers/DJster/dispenser",
				"type" : "JSON",
				"implicit" : 1
			}
, 			{
				"name" : "fixpathissue.js",
				"bootpath" : "/Users/Shared/Max 8/Packages/MaxScore/javascript",
				"patcherrelativepath" : "../../javascript",
				"type" : "TEXT",
				"implicit" : 1
			}
, 			{
				"name" : "fluidsynth~.mxo",
				"type" : "iLaX"
			}
, 			{
				"name" : "harmonic-energy-profile-15.txt",
				"bootpath" : "/Users/Shared/Max 8/Packages/MaxScore/patchers/DJster/Profiles",
				"patcherrelativepath" : "../../patchers/DJster/Profiles",
				"type" : "TEXT",
				"implicit" : 1
			}
, 			{
				"name" : "harmonicity.maxpat",
				"bootpath" : "/Users/Shared/Max 8/Packages/MaxScore/patchers/DJster/Tonality",
				"patcherrelativepath" : "../../patchers/DJster/Tonality",
				"type" : "JSON",
				"implicit" : 1
			}
, 			{
				"name" : "indigestibility.maxpat",
				"bootpath" : "/Users/Shared/Max 8/Packages/MaxScore/patchers/DJster/Tonality",
				"patcherrelativepath" : "../../patchers/DJster/Tonality",
				"type" : "JSON",
				"implicit" : 1
			}
, 			{
				"name" : "maxscore.fluidsynth-player.maxpat",
				"bootpath" : "/Users/Shared/Max 8/Packages/MaxScore/patchers/modules/Components",
				"patcherrelativepath" : "../../patchers/modules/Components",
				"type" : "JSON",
				"implicit" : 1
			}
, 			{
				"name" : "maxscore.fluidsynth.instrument.maxpat",
				"bootpath" : "/Users/Shared/Max 8/Packages/MaxScore/patchers/modules/Components",
				"patcherrelativepath" : "../../patchers/modules/Components",
				"type" : "JSON",
				"implicit" : 1
			}
, 			{
				"name" : "maxscore.fluidsynth.maxpat",
				"bootpath" : "/Users/Shared/Max 8/Packages/MaxScore/patchers/modules",
				"patcherrelativepath" : "../../patchers/modules",
				"type" : "JSON",
				"implicit" : 1
			}
, 			{
				"name" : "maxscore.fluidsynth.menus.maxpat",
				"bootpath" : "/Users/Shared/Max 8/Packages/MaxScore/patchers/modules/Components",
				"patcherrelativepath" : "../../patchers/modules/Components",
				"type" : "JSON",
				"implicit" : 1
			}
, 			{
				"name" : "maxscore.fluidsynthGUI.maxpat",
				"bootpath" : "/Users/Shared/Max 8/Packages/MaxScore/patchers/modules/Components",
				"patcherrelativepath" : "../../patchers/modules/Components",
				"type" : "JSON",
				"implicit" : 1
			}
, 			{
				"name" : "maxscore.voice2midichannels.maxpat",
				"bootpath" : "/Users/Shared/Max 8/Packages/MaxScore/patchers/modules/Components",
				"patcherrelativepath" : "../../patchers/modules/Components",
				"type" : "JSON",
				"implicit" : 1
			}
, 			{
				"name" : "meter-subpatch.maxpat",
				"bootpath" : "/Users/Shared/Max 8/Packages/MaxScore/patchers/DJster/core",
				"patcherrelativepath" : "../../patchers/DJster/core",
				"type" : "JSON",
				"implicit" : 1
			}
, 			{
				"name" : "mxj.mxo",
				"type" : "iLaX"
			}
, 			{
				"name" : "outset.maxpat",
				"bootpath" : "/Users/Shared/Max 8/Packages/MaxScore/patchers/DJster/core",
				"patcherrelativepath" : "../../patchers/DJster/core",
				"type" : "JSON",
				"implicit" : 1
			}
, 			{
				"name" : "packback.maxpat",
				"bootpath" : "/Users/Shared/Max 8/Packages/MaxScore/patchers/abstractions",
				"patcherrelativepath" : "../../patchers/abstractions",
				"type" : "JSON",
				"implicit" : 1
			}
, 			{
				"name" : "platform.js",
				"bootpath" : "/Users/Shared/Max 8/Packages/MaxScore/javascript",
				"patcherrelativepath" : "../../javascript",
				"type" : "TEXT",
				"implicit" : 1
			}
, 			{
				"name" : "primefactors.txt",
				"bootpath" : "/Users/Shared/Max 8/Packages/MaxScore/patchers/maps/microMaps",
				"patcherrelativepath" : "../../patchers/maps/microMaps",
				"type" : "TEXT",
				"implicit" : 1
			}
, 			{
				"name" : "psi-functions.txt",
				"bootpath" : "/Users/Shared/Max 8/Packages/MaxScore/patchers/DJster/dispenser",
				"patcherrelativepath" : "../../patchers/DJster/dispenser",
				"type" : "TEXT",
				"implicit" : 1
			}
, 			{
				"name" : "reader.maxpat",
				"bootpath" : "/Users/Shared/Max 8/Packages/MaxScore/patchers/DJster/dispenser",
				"patcherrelativepath" : "../../patchers/DJster/dispenser",
				"type" : "JSON",
				"implicit" : 1
			}
, 			{
				"name" : "reader2.maxpat",
				"bootpath" : "/Users/Shared/Max 8/Packages/MaxScore/patchers/DJster/dispenser",
				"patcherrelativepath" : "../../patchers/DJster/dispenser",
				"type" : "JSON",
				"implicit" : 1
			}
, 			{
				"name" : "scalaFileBase.js",
				"bootpath" : "/Users/Shared/Max 8/Packages/MaxScore/javascript",
				"patcherrelativepath" : "../../javascript",
				"type" : "TEXT",
				"implicit" : 1
			}
, 			{
				"name" : "scale-subpatch-exp.maxpat",
				"bootpath" : "/Users/Shared/Max 8/Packages/MaxScore/patchers/DJster/core",
				"patcherrelativepath" : "../../patchers/DJster/core",
				"type" : "JSON",
				"implicit" : 1
			}
, 			{
				"name" : "scriptingname.js",
				"bootpath" : "/Users/Shared/Max 8/Packages/MaxScore/javascript",
				"patcherrelativepath" : "../../javascript",
				"type" : "TEXT",
				"implicit" : 1
			}
 ],
		"autosave" : 0
	}

}
