{
	"patcher" : 	{
		"fileversion" : 1,
		"rect" : [ 515.0, 44.0, 512.0, 250.0 ],
		"bglocked" : 0,
		"defrect" : [ 515.0, 44.0, 512.0, 250.0 ],
		"openrect" : [ 0.0, 0.0, 0.0, 0.0 ],
		"openinpresentation" : 0,
		"default_fontsize" : 10.0,
		"default_fontface" : 0,
		"default_fontname" : "Arial",
		"gridonopen" : 0,
		"gridsize" : [ 15.0, 15.0 ],
		"gridsnaponopen" : 0,
		"toolbarvisible" : 1,
		"boxanimatetime" : 200,
		"imprint" : 0,
		"enablehscroll" : 1,
		"enablevscroll" : 1,
		"devicewidth" : 0.0,
		"boxes" : [ 			{
				"box" : 				{
					"maxclass" : "newobj",
					"text" : "unpack",
					"hidden" : 1,
					"numoutlets" : 2,
					"outlettype" : [ "int", "int" ],
					"fontsize" : 10.0,
					"patching_rect" : [ 115.0, 103.0, 43.0, 18.0 ],
					"numinlets" : 1,
					"id" : "obj-5",
					"fontname" : "Arial"
				}

			}
, 			{
				"box" : 				{
					"maxclass" : "newobj",
					"text" : "loadmess 81 64",
					"hidden" : 1,
					"numoutlets" : 1,
					"outlettype" : [ "" ],
					"fontsize" : 10.0,
					"patching_rect" : [ 115.0, 79.0, 81.0, 18.0 ],
					"numinlets" : 1,
					"id" : "obj-3",
					"fontname" : "Arial"
				}

			}
, 			{
				"box" : 				{
					"maxclass" : "message",
					"text" : "5 4",
					"numoutlets" : 1,
					"outlettype" : [ "" ],
					"fontsize" : 12.0,
					"presentation_rect" : [ 94.0, 94.0, 0.0, 0.0 ],
					"patching_rect" : [ 27.0, 132.0, 32.5, 18.0 ],
					"numinlets" : 2,
					"id" : "obj-2",
					"fontname" : "Arial"
				}

			}
, 			{
				"box" : 				{
					"maxclass" : "number",
					"numoutlets" : 2,
					"triscale" : 0.9,
					"outlettype" : [ "int", "bang" ],
					"bgcolor" : [ 0.866667, 0.866667, 0.866667, 1.0 ],
					"fontsize" : 12.0,
					"presentation_rect" : [ 51.0, 94.0, 0.0, 0.0 ],
					"htextcolor" : [ 0.870588, 0.870588, 0.870588, 1.0 ],
					"patching_rect" : [ 51.0, 103.0, 35.0, 20.0 ],
					"numinlets" : 1,
					"minimum" : 1,
					"id" : "obj-1",
					"fontname" : "Arial"
				}

			}
, 			{
				"box" : 				{
					"maxclass" : "message",
					"text" : ";\rmax launchbrowser mailto:georg.hajdu@hfmt-hamburg.de?subject=microUtilities&body=Hi",
					"linecount" : 2,
					"hidden" : 1,
					"numoutlets" : 1,
					"outlettype" : [ "" ],
					"bgcolor" : [ 1.0, 1.0, 1.0, 1.0 ],
					"fontsize" : 9.160198,
					"patching_rect" : [ 338.0, 243.0, 378.0, 26.0 ],
					"numinlets" : 2,
					"id" : "obj-79",
					"fontname" : "Arial"
				}

			}
, 			{
				"box" : 				{
					"maxclass" : "comment",
					"text" : "© Georg Hajdu",
					"numoutlets" : 0,
					"frgb" : [ 0.356863, 0.356863, 0.356863, 1.0 ],
					"textcolor" : [ 0.356863, 0.356863, 0.356863, 1.0 ],
					"fontsize" : 11.595187,
					"presentation_rect" : [ 566.0, 393.0, 158.0, 20.0 ],
					"patching_rect" : [ 313.0, 212.0, 94.0, 20.0 ],
					"numinlets" : 1,
					"presentation" : 1,
					"id" : "obj-80",
					"fontname" : "Arial"
				}

			}
, 			{
				"box" : 				{
					"maxclass" : "comment",
					"text" : "Calculate MIDI cents for given frequency ratio",
					"numoutlets" : 0,
					"fontsize" : 11.0,
					"patching_rect" : [ 9.0, 42.0, 372.0, 19.0 ],
					"numinlets" : 1,
					"id" : "obj-74",
					"fontname" : "Arial"
				}

			}
, 			{
				"box" : 				{
					"maxclass" : "comment",
					"text" : "µUtil.rtom",
					"numoutlets" : 0,
					"frgb" : [ 0.082353, 0.219608, 0.035294, 1.0 ],
					"textcolor" : [ 0.082353, 0.219608, 0.035294, 1.0 ],
					"fontface" : 2,
					"fontsize" : 24.0,
					"patching_rect" : [ 8.0, 7.0, 194.0, 34.0 ],
					"numinlets" : 1,
					"id" : "obj-75",
					"fontname" : "Arial"
				}

			}
, 			{
				"box" : 				{
					"maxclass" : "panel",
					"rounded" : 0,
					"numoutlets" : 0,
					"bgcolor" : [ 0.584314, 0.576471, 1.0, 1.0 ],
					"shadow" : -1,
					"patching_rect" : [ 3.0, 4.0, 425.0, 61.0 ],
					"numinlets" : 1,
					"id" : "obj-76"
				}

			}
, 			{
				"box" : 				{
					"maxclass" : "flonum",
					"numoutlets" : 2,
					"triscale" : 0.9,
					"outlettype" : [ "float", "bang" ],
					"bgcolor" : [ 0.866667, 0.866667, 0.866667, 1.0 ],
					"fontsize" : 12.0,
					"htextcolor" : [ 0.870588, 0.870588, 0.870588, 1.0 ],
					"patching_rect" : [ 8.0, 193.0, 55.0, 20.0 ],
					"numinlets" : 1,
					"id" : "obj-67",
					"fontname" : "Arial"
				}

			}
, 			{
				"box" : 				{
					"maxclass" : "newobj",
					"text" : "µUtil.rtom",
					"numoutlets" : 1,
					"outlettype" : [ "" ],
					"fontsize" : 12.0,
					"patching_rect" : [ 8.0, 162.0, 62.0, 20.0 ],
					"numinlets" : 2,
					"id" : "obj-68",
					"fontname" : "Arial"
				}

			}
, 			{
				"box" : 				{
					"maxclass" : "number",
					"numoutlets" : 2,
					"triscale" : 0.9,
					"outlettype" : [ "int", "bang" ],
					"bgcolor" : [ 0.866667, 0.866667, 0.866667, 1.0 ],
					"fontsize" : 12.0,
					"htextcolor" : [ 0.870588, 0.870588, 0.870588, 1.0 ],
					"patching_rect" : [ 8.0, 103.0, 35.0, 20.0 ],
					"numinlets" : 1,
					"id" : "obj-69",
					"fontname" : "Arial"
				}

			}
, 			{
				"box" : 				{
					"maxclass" : "comment",
					"text" : "Input: left: nominator (int) or ratio (list); right: denominator\nOutput: MIDI Cents (float)",
					"linecount" : 2,
					"numoutlets" : 0,
					"fontsize" : 12.0,
					"patching_rect" : [ 113.0, 149.0, 317.0, 34.0 ],
					"numinlets" : 1,
					"id" : "obj-70",
					"fontname" : "Arial"
				}

			}
, 			{
				"box" : 				{
					"maxclass" : "ubutton",
					"numoutlets" : 4,
					"outlettype" : [ "bang", "bang", "", "int" ],
					"presentation_rect" : [ 566.455444, 393.968689, 155.0, 18.0 ],
					"hilite" : 0,
					"handoff" : "",
					"patching_rect" : [ 312.0, 211.0, 96.0, 21.0 ],
					"numinlets" : 1,
					"presentation" : 1,
					"id" : "obj-78"
				}

			}
 ],
		"lines" : [ 			{
				"patchline" : 				{
					"source" : [ "obj-1", 0 ],
					"destination" : [ "obj-68", 1 ],
					"hidden" : 0,
					"midpoints" : [  ]
				}

			}
, 			{
				"patchline" : 				{
					"source" : [ "obj-69", 0 ],
					"destination" : [ "obj-68", 0 ],
					"hidden" : 0,
					"midpoints" : [  ]
				}

			}
, 			{
				"patchline" : 				{
					"source" : [ "obj-2", 0 ],
					"destination" : [ "obj-68", 0 ],
					"hidden" : 0,
					"midpoints" : [  ]
				}

			}
, 			{
				"patchline" : 				{
					"source" : [ "obj-68", 0 ],
					"destination" : [ "obj-67", 0 ],
					"hidden" : 0,
					"midpoints" : [  ]
				}

			}
, 			{
				"patchline" : 				{
					"source" : [ "obj-5", 1 ],
					"destination" : [ "obj-1", 0 ],
					"hidden" : 1,
					"midpoints" : [  ]
				}

			}
, 			{
				"patchline" : 				{
					"source" : [ "obj-5", 0 ],
					"destination" : [ "obj-69", 0 ],
					"hidden" : 1,
					"midpoints" : [  ]
				}

			}
, 			{
				"patchline" : 				{
					"source" : [ "obj-3", 0 ],
					"destination" : [ "obj-5", 0 ],
					"hidden" : 1,
					"midpoints" : [  ]
				}

			}
, 			{
				"patchline" : 				{
					"source" : [ "obj-78", 1 ],
					"destination" : [ "obj-79", 0 ],
					"hidden" : 1,
					"midpoints" : [  ]
				}

			}
 ]
	}

}
